<svg width="24" height="24" viewBox="0 0 24 24" fill="none" xmlns="http://www.w3.org/2000/svg">
<path d="M9.01529 10.55L8.44329 12.376H10.3463L9.76329 10.55C9.64755 10.185 9.54623 9.78396 9.45348 9.41686C9.43164 9.3304 9.41026 9.24581 9.38929 9.16403H9.36729C9.3296 9.31102 9.29191 9.46834 9.25334 9.62936C9.17933 9.93828 9.10207 10.2608 9.01529 10.55Z" fill="black"/>
<path d="M15.2968 10.946C14.4608 10.946 14.1088 11.705 14.0538 12.255H16.4078C16.4188 11.76 16.1988 10.946 15.2968 10.946Z" fill="black"/>
<path fill-rule="evenodd" clip-rule="evenodd" d="M6.76954 3.08151C10.2177 2.69614 13.7824 2.69614 17.2305 3.08151C19.1289 3.29369 20.6601 4.78947 20.8829 6.69452C21.2952 10.2195 21.2952 13.7806 20.8829 17.3056C20.6601 19.2106 19.1289 20.7064 17.2305 20.9186C13.7824 21.304 10.2177 21.304 6.76954 20.9186C4.87114 20.7064 3.33995 19.2106 3.11713 17.3056C2.70485 13.7806 2.70485 10.2195 3.11713 6.69452C3.33995 4.78947 4.87114 3.29369 6.76954 3.08151ZM11.2483 15.5L10.5773 13.399H8.22329L7.58529 15.5H6.18829L8.56429 8.08603H10.2913L12.7003 15.5H11.2483ZM17.6838 12.629C17.6838 12.882 17.6618 13.08 17.6398 13.201H14.0538C14.0868 14.169 14.8458 14.587 15.7038 14.587C16.3308 14.587 16.7818 14.499 17.1888 14.345L17.3868 15.28C16.9248 15.467 16.2868 15.621 15.5168 15.621C13.7788 15.621 12.7558 14.543 12.7558 12.904C12.7558 11.419 13.6578 10.022 15.3738 10.022C17.1228 10.022 17.6838 11.452 17.6838 12.629Z" fill="black"/>
</svg>
