<svg width="24" height="24" viewBox="0 0 24 24" fill="none" xmlns="http://www.w3.org/2000/svg">
<path d="M10.401 10.55L9.82904 12.376H11.732L11.149 10.55C11.0333 10.185 10.932 9.78397 10.8392 9.41687C10.8174 9.3304 10.796 9.24582 10.775 9.16403H10.753C10.7153 9.31102 10.6777 9.46834 10.6391 9.62936C10.5651 9.93828 10.4878 10.2608 10.401 10.55Z" fill="black"/>
<path fill-rule="evenodd" clip-rule="evenodd" d="M6.76954 3.08151C10.2177 2.69614 13.7824 2.69614 17.2305 3.08151C19.1289 3.29369 20.6601 4.78947 20.8829 6.69452C21.2952 10.2195 21.2952 13.7806 20.8829 17.3056C20.6601 19.2106 19.1289 20.7064 17.2305 20.9186C13.7824 21.304 10.2177 21.304 6.76954 20.9186C4.87114 20.7064 3.33995 19.2106 3.11713 17.3056C2.70485 13.7806 2.70485 10.2195 3.11713 6.69452C3.33995 4.78947 4.87114 3.29369 6.76954 3.08151ZM15.9325 10.143V15.5H14.5685V10.143H15.9325ZM14.4915 8.64703C14.4915 8.22903 14.7995 7.91003 15.2505 7.91003C15.7125 7.91003 15.9985 8.22903 16.0095 8.64703C16.0095 9.05403 15.7125 9.37303 15.2395 9.37303C14.7885 9.37303 14.4915 9.05403 14.4915 8.64703ZM12.634 15.5L11.963 13.399H9.60904L8.97104 15.5H7.57404L9.95004 8.08603H11.677L14.086 15.5H12.634Z" fill="black"/>
</svg>
