<svg width="24" height="24" viewBox="0 0 24 24" fill="none" xmlns="http://www.w3.org/2000/svg">
<path d="M9.87642 9.06504C9.50242 9.06504 9.23842 9.09804 9.09542 9.13104V11.639C9.26042 11.683 9.48042 11.694 9.75542 11.694C10.7674 11.694 11.3834 11.199 11.3834 10.33C11.3834 9.50504 10.8114 9.06504 9.87642 9.06504Z" fill="black"/>
<path fill-rule="evenodd" clip-rule="evenodd" d="M6.76954 3.08151C10.2177 2.69614 13.7824 2.69614 17.2305 3.08151C19.1289 3.29369 20.6601 4.78947 20.8829 6.69452C21.2952 10.2195 21.2952 13.7806 20.8829 17.3056C20.6601 19.2106 19.1289 20.7064 17.2305 20.9186C13.7824 21.304 10.2177 21.304 6.76954 20.9186C4.87114 20.7064 3.33995 19.2106 3.11713 17.3056C2.70485 13.7806 2.70485 10.2195 3.11713 6.69452C3.33995 4.78947 4.87114 3.29369 6.76954 3.08151ZM9.09542 15.5H7.75342V8.18504C8.23742 8.09704 8.90842 8.03104 9.82142 8.03104C10.8114 8.03104 11.5374 8.24004 12.0104 8.63604C12.4504 8.99904 12.7364 9.58204 12.7364 10.275C12.7364 10.979 12.5164 11.562 12.0984 11.958C11.5594 12.497 10.7124 12.75 9.75542 12.75C9.50242 12.75 9.27142 12.739 9.09542 12.706V15.5ZM14.4646 15.621C13.8156 15.621 13.2326 15.456 12.8366 15.236L13.1006 14.257C13.4086 14.444 13.9916 14.642 14.4756 14.642C15.0696 14.642 15.3336 14.4 15.3336 14.048C15.3336 13.685 15.1136 13.498 14.4536 13.267C13.4086 12.904 12.9686 12.332 12.9796 11.705C12.9796 10.759 13.7606 10.022 15.0036 10.022C15.5976 10.022 16.1146 10.176 16.4226 10.341L16.1586 11.298C15.9276 11.166 15.4986 10.99 15.0256 10.99C14.5416 10.99 14.2776 11.221 14.2776 11.551C14.2776 11.892 14.5306 12.057 15.2126 12.299C16.1806 12.651 16.6316 13.146 16.6426 13.938C16.6426 14.906 15.8836 15.621 14.4646 15.621Z" fill="black"/>
</svg>
