<svg width="24" height="24" viewBox="0 0 24 24" fill="none" xmlns="http://www.w3.org/2000/svg">
<path d="M6.20552 2.63158C5.41056 2.54273 4.58943 2.54273 3.79447 2.63158C3.1958 2.69849 2.71065 3.16969 2.63977 3.77577C2.54464 4.58912 2.54464 5.41079 2.63977 6.22414C2.71065 6.83022 3.19581 7.30142 3.79447 7.36833C4.58943 7.45718 5.41056 7.45718 6.20552 7.36833C6.80419 7.30142 7.28934 6.83022 7.36022 6.22414C7.45535 5.41079 7.45535 4.58912 7.36022 3.77577C7.28934 3.16969 6.80419 2.69849 6.20552 2.63158Z" fill="black"/>
<path d="M13.2055 2.63158C12.4106 2.54273 11.5894 2.54273 10.7945 2.63158C10.1958 2.69849 9.71065 3.16969 9.63976 3.77577C9.54463 4.58912 9.54463 5.41079 9.63976 6.22414C9.71065 6.83022 10.1958 7.30142 10.7945 7.36833C11.5894 7.45718 12.4106 7.45718 13.2055 7.36833C13.8042 7.30142 14.2893 6.83022 14.3602 6.22414C14.4553 5.41079 14.4553 4.58912 14.3602 3.77577C14.2893 3.16969 13.8042 2.69849 13.2055 2.63158Z" fill="black"/>
<path d="M20.2055 2.63158C19.4106 2.54273 18.5894 2.54273 17.7945 2.63158C17.1958 2.69849 16.7106 3.16969 16.6398 3.77577C16.5446 4.58912 16.5446 5.41079 16.6398 6.22414C16.7106 6.83022 17.1958 7.30142 17.7945 7.36833C18.5894 7.45718 19.4106 7.45718 20.2055 7.36833C20.8042 7.30142 21.2893 6.83022 21.3602 6.22414C21.4553 5.41079 21.4553 4.58912 21.3602 3.77577C21.2893 3.16969 20.8042 2.69849 20.2055 2.63158Z" fill="black"/>
<path d="M6.20552 9.63158C5.41056 9.54273 4.58943 9.54273 3.79447 9.63158C3.1958 9.69849 2.71065 10.1697 2.63977 10.7758C2.54464 11.5891 2.54464 12.4108 2.63977 13.2241C2.71065 13.8302 3.19581 14.3014 3.79447 14.3683C4.58943 14.4572 5.41056 14.4572 6.20552 14.3683C6.80419 14.3014 7.28934 13.8302 7.36022 13.2241C7.45535 12.4108 7.45535 11.5891 7.36022 10.7758C7.28934 10.1697 6.80419 9.69849 6.20552 9.63158Z" fill="black"/>
<path d="M13.2055 9.63158C12.4106 9.54273 11.5894 9.54273 10.7945 9.63158C10.1958 9.69849 9.71065 10.1697 9.63976 10.7758C9.54463 11.5891 9.54463 12.4108 9.63976 13.2241C9.71065 13.8302 10.1958 14.3014 10.7945 14.3683C11.5894 14.4572 12.4106 14.4572 13.2055 14.3683C13.8042 14.3014 14.2893 13.8302 14.3602 13.2241C14.4553 12.4108 14.4553 11.5891 14.3602 10.7758C14.2893 10.1697 13.8042 9.69849 13.2055 9.63158Z" fill="black"/>
<path d="M20.2055 9.63158C19.4106 9.54273 18.5894 9.54273 17.7945 9.63158C17.1958 9.69849 16.7106 10.1697 16.6398 10.7758C16.5446 11.5891 16.5446 12.4108 16.6398 13.2241C16.7106 13.8302 17.1958 14.3014 17.7945 14.3683C18.5894 14.4572 19.4106 14.4572 20.2055 14.3683C20.8042 14.3014 21.2893 13.8302 21.3602 13.2241C21.4553 12.4108 21.4553 11.5891 21.3602 10.7758C21.2893 10.1697 20.8042 9.69849 20.2055 9.63158Z" fill="black"/>
<path d="M6.20552 16.6316C5.41056 16.5427 4.58943 16.5427 3.79447 16.6316C3.1958 16.6985 2.71065 17.1697 2.63977 17.7758C2.54464 18.5891 2.54464 19.4108 2.63977 20.2241C2.71065 20.8302 3.19581 21.3014 3.79447 21.3683C4.58943 21.4572 5.41056 21.4572 6.20552 21.3683C6.80419 21.3014 7.28934 20.8302 7.36022 20.2241C7.45535 19.4108 7.45535 18.5891 7.36022 17.7758C7.28934 17.1697 6.80419 16.6985 6.20552 16.6316Z" fill="black"/>
<path d="M13.2055 16.6316C12.4106 16.5427 11.5894 16.5427 10.7945 16.6316C10.1958 16.6985 9.71065 17.1697 9.63976 17.7758C9.54463 18.5891 9.54463 19.4108 9.63976 20.2241C9.71065 20.8302 10.1958 21.3014 10.7945 21.3683C11.5894 21.4572 12.4106 21.4572 13.2055 21.3683C13.8042 21.3014 14.2893 20.8302 14.3602 20.2241C14.4553 19.4108 14.4553 18.5891 14.3602 17.7758C14.2893 17.1697 13.8042 16.6985 13.2055 16.6316Z" fill="black"/>
<path d="M20.2055 16.6316C19.4106 16.5427 18.5894 16.5427 17.7945 16.6316C17.1958 16.6985 16.7106 17.1697 16.6398 17.7758C16.5446 18.5891 16.5446 19.4108 16.6398 20.2241C16.7106 20.8302 17.1958 21.3014 17.7945 21.3683C18.5894 21.4572 19.4106 21.4572 20.2055 21.3683C20.8042 21.3014 21.2893 20.8302 21.3602 20.2241C21.4553 19.4108 21.4553 18.5891 21.3602 17.7758C21.2893 17.1697 20.8042 16.6985 20.2055 16.6316Z" fill="black"/>
</svg>
