<svg width="20" height="20" viewBox="0 0 20 20" fill="none" xmlns="http://www.w3.org/2000/svg">
<circle cx="10" cy="10" r="10" fill="white"/>
<path d="M6.98427 8.49565C6.93825 8.49565 6.90094 8.53296 6.90094 8.57898V9.5689C6.90094 9.61492 6.93825 9.65223 6.98427 9.65223H8.13166C8.45105 9.65223 8.70996 9.39332 8.70996 9.07394C8.70996 8.75456 8.45105 8.49565 8.13166 8.49565H6.98427Z" fill="#6393E8"/>
<path d="M6.98427 10.3936C6.93825 10.3936 6.90094 10.431 6.90094 10.477V11.6745C6.90094 11.7205 6.93825 11.7578 6.98427 11.7578H8.2058C8.58251 11.7578 8.88789 11.4524 8.88789 11.0757C8.88789 10.699 8.58251 10.3936 8.2058 10.3936H6.98427Z" fill="#6393E8"/>
<path d="M11.7237 10.4529C11.7034 10.4529 11.687 10.4365 11.687 10.4162C11.687 10.0107 12.0158 9.68189 12.4213 9.68189H12.5837C12.9893 9.68189 13.3181 10.0107 13.3181 10.4162C13.3181 10.4365 13.3016 10.4529 13.2813 10.4529H11.7237Z" fill="#6393E8"/>
<path fill-rule="evenodd" clip-rule="evenodd" d="M10.2377 9.99724C10.211 9.96364 10.1833 9.93108 10.1545 9.89959C10.3346 9.61487 10.4262 9.28317 10.4176 8.94652C10.4251 8.65708 10.3672 8.3696 10.248 8.10553C10.1318 7.84299 9.9461 7.61719 9.7109 7.4525L9.70619 7.44923C9.48435 7.29691 9.23285 7.19323 8.96819 7.14492C8.71409 7.09235 8.45505 7.06728 8.19556 7.07017H5.83333C5.48816 7.07017 5.20833 7.34999 5.20833 7.69517V12.6772C5.20833 13.0223 5.48816 13.3022 5.83333 13.3022H8.25027C8.52396 13.3023 8.79657 13.2677 9.06149 13.199C9.33385 13.1285 9.59189 13.0113 9.8241 12.8525L9.82715 12.8504C10.0589 12.6899 10.251 12.4791 10.3893 12.2342C10.4782 12.4045 10.5876 12.564 10.7153 12.7088C10.7189 12.7129 10.7226 12.7169 10.7263 12.7209C10.9506 12.9623 11.2262 13.1504 11.5328 13.2715L11.5406 13.2745C11.8555 13.3941 12.1901 13.4535 12.5268 13.4496C13.0112 13.4618 13.4891 13.3341 13.9027 13.0815C13.9149 13.0741 13.9267 13.0663 13.9383 13.0581C14.3746 12.7492 14.689 12.2976 14.8268 11.7812C14.8541 11.679 14.8546 11.573 14.8303 11.4729C14.8771 11.3927 14.9067 11.301 14.9137 11.2025C14.9372 10.8723 14.9089 10.5405 14.8298 10.219L14.8292 10.2166C14.7485 9.89425 14.6074 9.59013 14.4134 9.32028L14.4069 9.31139C14.2014 9.03608 13.9362 8.81091 13.6313 8.65263C13.6272 8.65052 13.6231 8.64845 13.619 8.64643C13.2861 8.48285 12.9193 8.40005 12.5485 8.40464C12.2095 8.40309 11.8735 8.46876 11.5601 8.59789L11.5561 8.59956C11.2613 8.72342 10.994 8.90458 10.77 9.13258L10.765 9.13764C10.5402 9.37172 10.3659 9.64955 10.2532 9.95389L10.2528 9.95503C10.2476 9.96907 10.2426 9.98314 10.2377 9.99724ZM9.09482 9.96835C9.33447 10.0261 9.54915 10.1566 9.71025 10.3404C9.73791 10.3719 9.76398 10.405 9.78833 10.4396C9.80001 10.4574 9.81126 10.4753 9.82207 10.4935C9.95431 10.7161 10.0212 10.972 10.0142 11.2317C10.021 11.4583 9.97059 11.683 9.86759 11.8851C9.77452 12.0658 9.63843 12.2208 9.4713 12.3366C9.29876 12.4546 9.10701 12.5417 8.9046 12.594C8.80888 12.6188 8.71192 12.6381 8.6142 12.6519C8.4939 12.6688 8.37244 12.6772 8.25072 12.6772H5.83333V7.69517H8.1992C8.41751 7.6925 8.63545 7.71375 8.84912 7.75853C9.02967 7.79048 9.20129 7.8607 9.35241 7.96447C9.49495 8.06427 9.60735 8.20126 9.67737 8.36049C9.76072 8.54429 9.80007 8.74496 9.7923 8.94661C9.80028 9.14584 9.75276 9.34294 9.65566 9.51616C9.645 9.53518 9.63374 9.55391 9.62189 9.57232C9.49159 9.74759 9.29652 9.88441 9.09482 9.96835ZM11.6674 11.2473C11.6661 11.2177 11.6661 11.1879 11.6674 11.1581H14.2903C14.294 11.1052 14.2961 11.0523 14.2966 10.9995C14.2972 10.9315 14.2951 10.8636 14.2903 10.7959C14.284 10.7078 14.2731 10.6201 14.2577 10.5331C14.248 10.4779 14.2363 10.4229 14.2229 10.3683C14.1614 10.1227 14.0539 9.89092 13.9059 9.68517C13.757 9.4856 13.5647 9.32224 13.3433 9.20736C13.0971 9.08634 12.8255 9.02543 12.5509 9.02966C12.2927 9.02778 12.0368 9.07746 11.7982 9.17577C11.5797 9.26758 11.3817 9.40181 11.2157 9.57065C11.0503 9.74287 10.9222 9.94718 10.8394 10.1709C10.7505 10.4124 10.7062 10.6679 10.7086 10.9251C10.7045 11.186 10.7475 11.4454 10.8354 11.6912C10.9101 11.9137 11.0286 12.1191 11.184 12.2954C11.3449 12.4684 11.5425 12.6033 11.7625 12.6902C12.0078 12.7834 12.2687 12.829 12.5311 12.8245C12.8994 12.8359 13.2629 12.7399 13.5771 12.5481C13.6995 12.4614 13.8087 12.3593 13.9023 12.2451C14.0157 12.1069 14.1063 11.951 14.1703 11.7831C14.1905 11.7299 14.2081 11.6755 14.2229 11.6201H13.3473C13.325 11.6793 13.2936 11.7342 13.2548 11.7831C13.2122 11.8368 13.1605 11.8832 13.1017 11.9202C12.9493 12.0209 12.7693 12.0719 12.5866 12.0663C12.4657 12.0789 12.3434 12.0664 12.2275 12.0297C12.1116 11.9931 12.0046 11.9329 11.9131 11.8531C11.8931 11.8305 11.8743 11.8072 11.8566 11.7831C11.7421 11.627 11.6762 11.4406 11.6674 11.2473Z" fill="#6393E8"/>
<path d="M13.5194 7.66499C13.5185 7.57361 13.4441 7.50002 13.3527 7.50002H11.6757C11.5837 7.50002 11.509 7.57463 11.509 7.66668V8.11305C11.509 8.2051 11.5837 8.27972 11.6757 8.27972H13.3573C13.45 8.27972 13.5249 8.20406 13.5239 8.11136L13.5194 7.66499Z" fill="#6393E8"/>
</svg>
