<svg width="26" height="26" viewBox="0 0 26 26" fill="none" xmlns="http://www.w3.org/2000/svg">
<circle cx="12.9703" cy="13" r="12.9703" fill="#6393E8"/>
<path d="M9.05879 11.0488C8.99909 11.0488 8.9507 11.0972 8.9507 11.1569V12.4408C8.9507 12.5005 8.99909 12.5489 9.05879 12.5489H10.547C10.9612 12.5489 11.297 12.2131 11.297 11.7988C11.297 11.3846 10.9612 11.0488 10.547 11.0488H9.05879Z" fill="white"/>
<path d="M9.05879 13.5105C8.99909 13.5105 8.9507 13.5589 8.9507 13.6186V15.1718C8.9507 15.2315 8.99909 15.2799 9.05879 15.2799H10.6431C11.1317 15.2799 11.5278 14.8838 11.5278 14.3952C11.5278 13.9066 11.1317 13.5105 10.6431 13.5105H9.05879Z" fill="white"/>
<path d="M15.206 13.5875C15.1797 13.5875 15.1583 13.5661 15.1583 13.5398C15.1583 13.0138 15.5848 12.5874 16.1108 12.5874H16.3214C16.8475 12.5874 17.2739 13.0138 17.2739 13.5398C17.2739 13.5661 17.2526 13.5875 17.2263 13.5875H15.206Z" fill="white"/>
<path fill-rule="evenodd" clip-rule="evenodd" d="M13.2785 12.9964C13.244 12.9528 13.208 12.9106 13.1706 12.8697C13.4043 12.5004 13.523 12.0702 13.5119 11.6336C13.5217 11.2582 13.4465 10.8853 13.292 10.5428C13.1413 10.2023 12.9004 9.90939 12.5953 9.69578L12.5892 9.69155C12.3015 9.49398 11.9753 9.3595 11.632 9.29685C11.3024 9.22865 10.9664 9.19615 10.6299 9.19989H7.56598C7.11828 9.19989 6.75534 9.56283 6.75534 10.0105V16.4723C6.75534 16.92 7.11828 17.283 7.56598 17.283H10.7008C11.0558 17.2832 11.4094 17.2382 11.753 17.1491C12.1063 17.0577 12.4409 16.9057 12.7421 16.6997L12.7461 16.697C13.0467 16.4888 13.2958 16.2154 13.4752 15.8977C13.5905 16.1187 13.7324 16.3255 13.8981 16.5133C13.9027 16.5186 13.9075 16.5238 13.9123 16.529C14.2033 16.8421 14.5607 17.0861 14.9584 17.2432L14.9685 17.2471C15.3769 17.4022 15.8108 17.4792 16.2476 17.4742C16.8759 17.49 17.4957 17.3244 18.0323 16.9968C18.048 16.9872 18.0634 16.9771 18.0784 16.9664C18.6442 16.5657 19.0521 15.98 19.2308 15.3102C19.2661 15.1777 19.2668 15.0403 19.2353 14.9103C19.296 14.8063 19.3344 14.6873 19.3435 14.5597C19.374 14.1314 19.3373 13.701 19.2347 13.284L19.2339 13.2809C19.1293 12.8628 18.9462 12.4684 18.6945 12.1183L18.6861 12.1068C18.4196 11.7497 18.0757 11.4577 17.6801 11.2524C17.6749 11.2496 17.6695 11.247 17.6642 11.2443C17.2325 11.0322 16.7567 10.9248 16.2757 10.9307C15.836 10.9287 15.4003 11.0139 14.9937 11.1814L14.9885 11.1836C14.6062 11.3442 14.2596 11.5792 13.9689 11.8749L13.9626 11.8815C13.6709 12.1851 13.4448 12.5454 13.2987 12.9402L13.2982 12.9416C13.2915 12.9598 13.2849 12.9781 13.2785 12.9964ZM11.7962 12.9589C12.1071 13.0338 12.3855 13.2031 12.5945 13.4414C12.6303 13.4824 12.6642 13.5253 12.6957 13.5702C12.7109 13.5932 12.7255 13.6165 12.7395 13.6401C12.911 13.9288 12.9977 14.2607 12.9887 14.5975C12.9975 14.8915 12.9321 15.1829 12.7985 15.445C12.6778 15.6793 12.5013 15.8804 12.2845 16.0306C12.0607 16.1836 11.812 16.2966 11.5495 16.3644C11.4254 16.3966 11.2996 16.4217 11.1728 16.4395C11.0168 16.4614 10.8593 16.4724 10.7014 16.4723H7.56598V10.0105H10.6346C10.9177 10.0071 11.2004 10.0346 11.4775 10.0927C11.7117 10.1342 11.9343 10.2252 12.1303 10.3598C12.3152 10.4893 12.461 10.6669 12.5518 10.8735C12.6599 11.1119 12.711 11.3721 12.7009 11.6337C12.7112 11.8921 12.6496 12.1477 12.5237 12.3724C12.5098 12.3971 12.4952 12.4214 12.4799 12.4453C12.3109 12.6726 12.0578 12.85 11.7962 12.9589ZM15.133 14.6178C15.1312 14.5794 15.1312 14.5408 15.133 14.502H18.5349C18.5398 14.4335 18.5425 14.3649 18.5431 14.2963C18.5439 14.2081 18.5411 14.1201 18.5349 14.0322C18.5267 13.918 18.5127 13.8043 18.4927 13.6914C18.48 13.6198 18.4649 13.5485 18.4475 13.4777C18.3678 13.1591 18.2283 12.8585 18.0364 12.5916C17.8432 12.3328 17.5938 12.1209 17.3067 11.9719C16.9873 11.8149 16.635 11.7359 16.2789 11.7414C15.944 11.739 15.612 11.8034 15.3025 11.9309C15.0191 12.05 14.7623 12.2241 14.5471 12.4431C14.3325 12.6665 14.1663 12.9315 14.0589 13.2216C13.9437 13.5348 13.8862 13.8662 13.8894 14.1999C13.8841 14.5382 13.9398 14.8748 14.0538 15.1935C14.1507 15.4821 14.3044 15.7485 14.506 15.9771C14.7146 16.2015 14.971 16.3765 15.2563 16.4893C15.5744 16.6101 15.9128 16.6692 16.2532 16.6634C16.7308 16.6783 17.2024 16.5537 17.6099 16.3049C17.7686 16.1925 17.9102 16.0601 18.0317 15.9119C18.1787 15.7327 18.2963 15.5305 18.3793 15.3127C18.4055 15.2437 18.4283 15.1732 18.4475 15.1013H17.3118C17.2828 15.178 17.2422 15.2492 17.1919 15.3127C17.1366 15.3823 17.0696 15.4426 16.9932 15.4905C16.7956 15.6211 16.5622 15.6873 16.3252 15.6801C16.1683 15.6964 16.0097 15.6802 15.8594 15.6326C15.7091 15.585 15.5702 15.507 15.4516 15.4035C15.4257 15.3742 15.4013 15.3439 15.3783 15.3127C15.2298 15.1102 15.1444 14.8684 15.133 14.6178Z" fill="white"/>
<path d="M17.535 9.97139C17.5338 9.85286 17.4374 9.75741 17.3189 9.75741H15.1437C15.0243 9.75741 14.9275 9.8542 14.9275 9.97358V10.5525C14.9275 10.6719 15.0243 10.7687 15.1437 10.7687H17.3248C17.445 10.7687 17.5422 10.6706 17.5409 10.5503L17.535 9.97139Z" fill="white"/>
</svg>
