<svg width="24" height="24" viewBox="0 0 24 24" fill="none" xmlns="http://www.w3.org/2000/svg">
<path d="M16.4765 3.00356C16.6441 3.01949 16.7164 3.22296 16.5974 3.34199L8.27727 11.6621C8.18305 11.7563 8.11563 11.8739 8.08195 12.0029L7.08195 15.8313C7.01466 16.0889 7.089 16.3629 7.27727 16.5512C7.46555 16.7395 7.73953 16.8138 7.99715 16.7465L11.8256 15.7465C11.9545 15.7128 12.0721 15.6454 12.1664 15.5512L20.6043 7.11325C20.7227 6.99486 20.9251 7.06569 20.9426 7.2322C21.2941 10.5814 21.2742 13.9597 20.8829 17.3056C20.6601 19.2106 19.1289 20.7064 17.2305 20.9186C13.7824 21.304 10.2177 21.304 6.76954 20.9186C4.87114 20.7064 3.33995 19.2106 3.11713 17.3056C2.70485 13.7806 2.70485 10.2195 3.11713 6.69452C3.33995 4.78947 4.87114 3.29369 6.76954 3.08151C9.96693 2.72416 13.2646 2.69817 16.4765 3.00356Z" fill="black"/>
<path d="M17.8234 4.23732C17.921 4.13988 18.079 4.13988 18.1766 4.23732L19.591 5.65168C19.6886 5.74931 19.6886 5.9076 19.591 6.00523L11.2976 14.2987C11.2663 14.3299 11.2267 14.3525 11.184 14.3638L9.26955 14.8638C9.08491 14.9119 8.91676 14.7433 8.96469 14.5587L9.46468 12.6445C9.47591 12.6015 9.49839 12.5623 9.52979 12.5309L17.8234 4.23732Z" fill="black"/>
</svg>
