<svg width="66" height="11" viewBox="0 0 66 11" fill="none" xmlns="http://www.w3.org/2000/svg">
<path d="M5.07731 1.30091C5.21035 0.891439 5.78965 0.89144 5.92269 1.30091L6.63504 3.4933C6.69454 3.67642 6.86519 3.80041 7.05773 3.80041H9.36295C9.7935 3.80041 9.97251 4.35135 9.62419 4.60441L7.75923 5.95939C7.60346 6.07256 7.53828 6.27317 7.59778 6.45629L8.31013 8.64868C8.44317 9.05815 7.97451 9.39865 7.6262 9.14559L5.76124 7.79061C5.60547 7.67744 5.39453 7.67744 5.23876 7.79061L3.3738 9.14559C3.02548 9.39865 2.55683 9.05815 2.68987 8.64868L3.40222 6.45629C3.46172 6.27317 3.39654 6.07256 3.24077 5.95939L1.37581 4.60441C1.02749 4.35135 1.2065 3.80041 1.63705 3.80041H3.94227C4.13481 3.80041 4.30546 3.67642 4.36496 3.4933L5.07731 1.30091Z" fill="#FFC806"/>
<path d="M18.8272 1.30091C18.9602 0.891439 19.5395 0.89144 19.6726 1.30091L20.3849 3.4933C20.4444 3.67642 20.6151 3.80041 20.8076 3.80041H23.1128C23.5434 3.80041 23.7224 4.35135 23.3741 4.60441L21.5091 5.95939C21.3534 6.07256 21.2882 6.27317 21.3477 6.45629L22.06 8.64868C22.1931 9.05815 21.7244 9.39865 21.3761 9.14559L19.5111 7.79061C19.3554 7.67744 19.1444 7.67744 18.9887 7.79061L17.1237 9.14559C16.7754 9.39865 16.3067 9.05815 16.4398 8.64868L17.1521 6.45629C17.2116 6.27317 17.1464 6.07256 16.9907 5.95939L15.1257 4.60441C14.7774 4.35135 14.9564 3.80041 15.3869 3.80041H17.6922C17.8847 3.80041 18.0554 3.67642 18.1149 3.4933L18.8272 1.30091Z" fill="#FFC806"/>
<path d="M32.5772 1.30091C32.7102 0.891439 33.2895 0.89144 33.4226 1.30091L34.1349 3.4933C34.1944 3.67642 34.3651 3.80041 34.5576 3.80041H36.8628C37.2934 3.80041 37.4724 4.35135 37.1241 4.60441L35.2591 5.95939C35.1034 6.07256 35.0382 6.27317 35.0977 6.45629L35.81 8.64868C35.9431 9.05815 35.4744 9.39865 35.1261 9.14559L33.2611 7.79061C33.1054 7.67744 32.8944 7.67744 32.7387 7.79061L30.8737 9.14559C30.5254 9.39865 30.0567 9.05815 30.1898 8.64868L30.9021 6.45629C30.9616 6.27317 30.8964 6.07256 30.7407 5.95939L28.8757 4.60441C28.5274 4.35135 28.7064 3.80041 29.1369 3.80041H31.4422C31.6347 3.80041 31.8054 3.67642 31.8649 3.4933L32.5772 1.30091Z" fill="#FFC806"/>
<path d="M46.3272 1.30091C46.4603 0.891439 47.0396 0.89144 47.1726 1.30091L47.885 3.4933C47.9445 3.67642 48.1151 3.80041 48.3077 3.80041H50.6129C51.0434 3.80041 51.2224 4.35135 50.8741 4.60441L49.0092 5.95939C48.8534 6.07256 48.7882 6.27317 48.8477 6.45629L49.5601 8.64868C49.6931 9.05815 49.2245 9.39865 48.8761 9.14559L47.0112 7.79061C46.8554 7.67744 46.6445 7.67744 46.4887 7.79061L44.6237 9.14559C44.2754 9.39865 43.8068 9.05815 43.9398 8.64868L44.6522 6.45629C44.7117 6.27317 44.6465 6.07256 44.4907 5.95939L42.6257 4.60441C42.2774 4.35135 42.4564 3.80041 42.887 3.80041H45.1922C45.3847 3.80041 45.5554 3.67642 45.6149 3.4933L46.3272 1.30091Z" fill="#FFC806"/>
<path d="M60.0772 1.30091C60.2102 0.891439 60.7895 0.89144 60.9226 1.30091L61.6349 3.4933C61.6944 3.67642 61.8651 3.80041 62.0576 3.80041H64.3628C64.7934 3.80041 64.9724 4.35135 64.6241 4.60441L62.7591 5.95939C62.6033 6.07256 62.5382 6.27317 62.5977 6.45629L63.31 8.64868C63.4431 9.05815 62.9744 9.39865 62.6261 9.14559L60.7611 7.79061C60.6053 7.67744 60.3944 7.67744 60.2386 7.79061L58.3737 9.14559C58.0254 9.39865 57.5567 9.05815 57.6898 8.64868L58.4021 6.45629C58.4616 6.27317 58.3964 6.07256 58.2406 5.95939L56.3757 4.60441C56.0274 4.35135 56.2064 3.80041 56.6369 3.80041H58.9421C59.1347 3.80041 59.3053 3.67642 59.3648 3.4933L60.0772 1.30091Z" fill="#FFC806"/>
</svg>
