<svg width="369" height="16" viewBox="0 0 369 16" fill="none" xmlns="http://www.w3.org/2000/svg">
<g clip-path="url(#clip0_75_182)">
<path d="M26.7699 3.99882C26.7699 4.57235 26.3097 5.03437 25.7385 5.03437C25.1672 5.03437 24.707 4.57235 24.707 3.99882C24.707 3.42528 25.1513 2.96327 25.7385 2.96327C26.3256 2.9792 26.7699 3.44121 26.7699 3.99882ZM22.5172 6.08585C22.5172 6.18144 22.5172 6.34075 22.5172 6.34075C22.5172 6.34075 22.0253 5.70349 20.978 5.70349C19.2483 5.70349 17.8995 7.02581 17.8995 8.85793C17.8995 10.6741 19.2324 12.0124 20.978 12.0124C22.0411 12.0124 22.5172 11.3592 22.5172 11.3592V11.63C22.5172 11.7575 22.6124 11.8531 22.7393 11.8531H24.0247V5.8628C24.0247 5.8628 22.8504 5.8628 22.7393 5.8628C22.6124 5.8628 22.5172 5.97433 22.5172 6.08585ZM22.5172 9.92535C22.2792 10.2758 21.8031 10.5785 21.2319 10.5785C20.2163 10.5785 19.4387 9.94128 19.4387 8.85793C19.4387 7.77459 20.2163 7.13733 21.2319 7.13733C21.7872 7.13733 22.295 7.45596 22.5172 7.79052V9.92535ZM24.9768 5.8628H26.5001V11.8531H24.9768V5.8628ZM47.7319 5.70349C46.6846 5.70349 46.1927 6.34075 46.1927 6.34075V2.9792H44.6694V11.8531C44.6694 11.8531 45.8436 11.8531 45.9547 11.8531C46.0816 11.8531 46.1769 11.7415 46.1769 11.63V11.3592C46.1769 11.3592 46.6688 12.0124 47.7161 12.0124C49.4457 12.0124 50.7945 10.6741 50.7945 8.85793C50.7945 7.04174 49.4457 5.70349 47.7319 5.70349ZM47.4781 10.5626C46.8909 10.5626 46.4307 10.2599 46.1927 9.90941V7.77459C46.4307 7.45596 46.9385 7.1214 47.4781 7.1214C48.4936 7.1214 49.2712 7.75866 49.2712 8.842C49.2712 9.92535 48.4936 10.5626 47.4781 10.5626ZM43.8759 8.30033V11.869H42.3526V8.47558C42.3526 7.48782 42.0352 7.08953 41.1783 7.08953C40.7181 7.08953 40.2421 7.32851 39.9406 7.679V11.8531H38.4172V5.8628H39.6232C39.7502 5.8628 39.8454 5.97433 39.8454 6.08585V6.34075C40.2897 5.87874 40.8768 5.70349 41.464 5.70349C42.1304 5.70349 42.6858 5.89467 43.1301 6.27702C43.6697 6.72311 43.8759 7.29664 43.8759 8.30033ZM34.7199 5.70349C33.6726 5.70349 33.1807 6.34075 33.1807 6.34075V2.9792H31.6573V11.8531C31.6573 11.8531 32.8316 11.8531 32.9427 11.8531C33.0696 11.8531 33.1648 11.7415 33.1648 11.63V11.3592C33.1648 11.3592 33.6567 12.0124 34.7041 12.0124C36.4337 12.0124 37.7825 10.6741 37.7825 8.85793C37.7984 7.04174 36.4496 5.70349 34.7199 5.70349ZM34.466 10.5626C33.8789 10.5626 33.4187 10.2599 33.1807 9.90941V7.77459C33.4187 7.45596 33.9265 7.1214 34.466 7.1214C35.4816 7.1214 36.2592 7.75866 36.2592 8.842C36.2592 9.92535 35.4816 10.5626 34.466 10.5626ZM30.3403 5.70349C30.8004 5.70349 31.0385 5.78315 31.0385 5.78315V7.20105C31.0385 7.20105 29.769 6.7709 28.9756 7.679V11.869H27.4522V5.8628C27.4522 5.8628 28.6265 5.8628 28.7376 5.8628C28.8645 5.8628 28.9597 5.97433 28.9597 6.08585V6.34075C29.2454 6.00619 29.8642 5.70349 30.3403 5.70349ZM14.5196 11.3114C14.4402 11.1202 14.3609 10.9131 14.2815 10.7379C14.1546 10.4511 14.0276 10.1803 13.9166 9.92535L13.9007 9.90941C12.8058 7.51968 11.6315 5.09809 10.3938 2.70836L10.3462 2.61277C10.2192 2.3738 10.0923 2.11889 9.96535 1.86399C9.80666 1.57722 9.64798 1.27452 9.39409 0.987755C8.8863 0.350494 8.15636 0 7.37881 0C6.58539 0 5.87132 0.350494 5.34766 0.955892C5.10964 1.24266 4.93509 1.54536 4.7764 1.83213C4.64946 2.08703 4.52251 2.34194 4.39557 2.58091L4.34796 2.6765C3.1261 5.06623 1.93598 7.48782 0.841062 9.87755L0.825193 9.90941C0.714115 10.1643 0.587168 10.4352 0.460222 10.7219C0.38088 10.8972 0.301539 11.0883 0.222197 11.2955C0.0159089 11.8849 -0.0475643 12.4425 0.0317773 13.0161C0.206329 14.2109 0.999745 15.2146 2.09466 15.6607C2.50724 15.8359 2.93568 15.9156 3.37999 15.9156C3.50694 15.9156 3.66562 15.8997 3.79257 15.8837C4.31622 15.82 4.85575 15.6448 5.3794 15.3421C6.03 14.9756 6.64887 14.4499 7.34707 13.6852C8.04528 14.4499 8.68001 14.9756 9.31474 15.3421C9.8384 15.6448 10.3779 15.82 10.9016 15.8837C11.0285 15.8997 11.1872 15.9156 11.3142 15.9156C11.7585 15.9156 12.2028 15.8359 12.5995 15.6607C13.7103 15.2146 14.4878 14.195 14.6624 13.0161C14.7893 12.4585 14.7258 11.9009 14.5196 11.3114ZM7.36294 12.1398C6.50605 11.0565 5.95066 10.0369 5.76024 9.17656C5.6809 8.81014 5.66503 8.49151 5.71264 8.20474C5.74437 7.94984 5.83958 7.72679 5.96653 7.53562C6.26803 7.10546 6.77581 6.83463 7.36294 6.83463C7.95007 6.83463 8.47372 7.08953 8.75935 7.53562C8.8863 7.72679 8.98151 7.94984 9.01325 8.20474C9.06085 8.49151 9.04498 8.82607 8.96564 9.17656C8.77522 10.0209 8.21983 11.0406 7.36294 12.1398ZM13.6944 12.8886C13.5833 13.7171 13.0279 14.434 12.2504 14.7526C11.8695 14.9119 11.457 14.9597 11.0444 14.9119C10.6477 14.8641 10.251 14.7367 9.8384 14.4977C9.26714 14.1791 8.69588 13.6852 8.02941 12.9523C9.07672 11.6619 9.71145 10.4829 9.94948 9.43147C10.0606 8.93759 10.0764 8.49151 10.0288 8.07729C9.96535 7.679 9.82253 7.31257 9.60037 6.99394C9.10846 6.27702 8.2833 5.8628 7.36294 5.8628C6.44258 5.8628 5.61743 6.29296 5.12551 6.99394C4.90335 7.31257 4.76054 7.679 4.69706 8.07729C4.63359 8.49151 4.64946 8.95352 4.7764 9.43147C5.01443 10.4829 5.66503 11.6778 6.69647 12.9683C6.04587 13.7011 5.45874 14.195 4.88748 14.5136C4.47491 14.7526 4.0782 14.8801 3.68149 14.9278C3.25305 14.9756 2.84047 14.9119 2.4755 14.7685C1.69795 14.4499 1.14256 13.733 1.03148 12.9045C0.983876 12.5063 1.01561 12.108 1.1743 11.6619C1.2219 11.5026 1.30124 11.3433 1.38058 11.1521C1.49166 10.8972 1.61861 10.6263 1.74556 10.3555L1.76142 10.3236C2.85634 7.94984 4.03059 5.52824 5.25245 3.17038L5.30006 3.07479C5.42701 2.83581 5.55395 2.58091 5.6809 2.34194C5.80785 2.08703 5.95066 1.84806 6.12521 1.64095C6.45845 1.25859 6.90276 1.05148 7.39468 1.05148C7.8866 1.05148 8.33091 1.25859 8.66414 1.64095C8.83869 1.84806 8.98151 2.08703 9.10846 2.34194C9.2354 2.58091 9.36235 2.83581 9.4893 3.07479L9.5369 3.17038C10.7429 5.54417 11.9171 7.96577 13.0121 10.3396V10.3555C13.139 10.6104 13.2501 10.8972 13.377 11.1521C13.4564 11.3433 13.5357 11.5026 13.5833 11.6619C13.7103 12.0761 13.7579 12.4744 13.6944 12.8886Z" fill="#999999"/>
</g>
<g clip-path="url(#clip1_75_182)">
<path d="M121.445 9.72668L122.791 10.6237C122.354 11.267 121.31 12.3706 119.504 12.3706C117.261 12.3706 115.591 10.6355 115.591 8.42833C115.591 6.07951 117.279 4.48608 119.315 4.48608C121.363 4.48608 122.366 6.11492 122.691 6.99425L122.868 7.44277L117.592 9.62635C117.993 10.4172 118.619 10.8185 119.504 10.8185C120.389 10.8185 121.003 10.3818 121.445 9.72668ZM117.308 8.3044L120.832 6.84081C120.637 6.35098 120.059 6.00279 119.368 6.00279C118.489 6.00279 117.267 6.78179 117.308 8.3044Z" fill="#999999"/>
<path d="M113.048 0.467163H114.747V12.0106H113.048V0.467163Z" fill="#999999"/>
<path d="M110.368 4.79301H112.009V11.8041C112.009 14.7135 110.291 15.9116 108.261 15.9116C106.349 15.9116 105.198 14.625 104.768 13.5804L106.272 12.9549C106.544 13.5982 107.199 14.3595 108.261 14.3595C109.566 14.3595 110.368 13.5509 110.368 12.0401V11.4736H110.309C109.92 11.9457 109.176 12.3706 108.232 12.3706C106.261 12.3706 104.455 10.6533 104.455 8.44018C104.455 6.21529 106.261 4.48022 108.232 4.48022C109.17 4.48022 109.92 4.89924 110.309 5.35956H110.368V4.79301ZM110.486 8.44018C110.486 7.04741 109.56 6.03234 108.379 6.03234C107.187 6.03234 106.184 7.04741 106.184 8.44018C106.184 9.81524 107.187 10.8126 108.379 10.8126C109.56 10.8185 110.486 9.81524 110.486 8.44018Z" fill="#999999"/>
<path d="M95.1244 8.41068C95.1244 10.6828 93.3539 12.3529 91.1822 12.3529C89.0104 12.3529 87.2399 10.6769 87.2399 8.41068C87.2399 6.12677 89.0104 4.46252 91.1822 4.46252C93.3539 4.46252 95.1244 6.12677 95.1244 8.41068ZM93.4012 8.41068C93.4012 6.9943 92.3743 6.02054 91.1822 6.02054C89.99 6.02054 88.9632 6.9943 88.9632 8.41068C88.9632 9.81525 89.99 10.8008 91.1822 10.8008C92.3743 10.8008 93.4012 9.81525 93.4012 8.41068Z" fill="#999999"/>
<path d="M103.735 8.42833C103.735 10.7004 101.964 12.3706 99.7926 12.3706C97.6208 12.3706 95.8503 10.7004 95.8503 8.42833C95.8503 6.14443 97.6208 4.48608 99.7926 4.48608C101.964 4.48608 103.735 6.13852 103.735 8.42833ZM102.006 8.42833C102.006 7.01196 100.979 6.0382 99.7867 6.0382C98.5946 6.0382 97.5677 7.01196 97.5677 8.42833C97.5677 9.83291 98.5946 10.8185 99.7867 10.8185C100.985 10.8185 102.006 9.827 102.006 8.42833Z" fill="#999999"/>
<path d="M80.76 10.6415C78.2872 10.6415 76.3515 8.64673 76.3515 6.17397C76.3515 3.70122 78.2872 1.70648 80.76 1.70648C82.0938 1.70648 83.0675 2.23172 83.7875 2.9045L84.9737 1.71829C83.9705 0.756331 82.6308 0.0245361 80.76 0.0245361C77.3725 0.0245361 74.522 2.78647 74.522 6.17397C74.522 9.56148 77.3725 12.3234 80.76 12.3234C82.5895 12.3234 83.9705 11.7215 85.0504 10.6002C86.1599 9.49066 86.5022 7.93264 86.5022 6.66971C86.5022 6.2743 86.455 5.86709 86.4019 5.56611H80.76V7.20675H84.779C84.6609 8.23362 84.3363 8.93591 83.8583 9.41394C83.28 9.99819 82.3652 10.6415 80.76 10.6415Z" fill="#999999"/>
</g>
<g clip-path="url(#clip2_75_182)">
<path d="M166.602 12.4692L167.379 10.6646C168.218 11.2912 169.334 11.6171 170.437 11.6171C171.251 11.6171 171.765 11.3038 171.765 10.8276C171.752 9.49917 166.89 10.5393 166.852 7.20582C166.84 5.514 168.344 4.21068 170.474 4.21068C171.74 4.21068 173.006 4.52397 173.908 5.2383L173.181 7.0805C172.354 6.55415 171.326 6.1782 170.349 6.1782C169.685 6.1782 169.246 6.49149 169.246 6.89252C169.259 8.19584 174.159 7.48152 174.209 10.6646C174.209 12.3941 172.742 13.6097 170.637 13.6097C169.096 13.6097 167.679 13.2462 166.602 12.4692ZM196.415 10.013C196.027 10.6897 195.3 11.1534 194.46 11.1534C193.22 11.1534 192.217 10.1508 192.217 8.91016C192.217 7.6695 193.22 6.66694 194.46 6.66694C195.3 6.66694 196.027 7.13063 196.415 7.80735L198.558 6.61681C197.756 5.18817 196.215 4.21068 194.46 4.21068C191.866 4.21068 189.761 6.31605 189.761 8.91016C189.761 11.5043 191.866 13.6097 194.46 13.6097C196.227 13.6097 197.756 12.6447 198.558 11.2035L196.415 10.013V10.013ZM175.286 0.313232H177.968V13.4342H175.286V0.313232ZM199.611 0.313232V13.4342H202.293V9.49917L205.476 13.4342H208.91L204.862 8.75978L208.609 4.39866H205.326L202.293 8.0204V0.313232H199.611ZM185.939 10.038C185.55 10.6772 184.748 11.1534 183.846 11.1534C182.605 11.1534 181.603 10.1508 181.603 8.91016C181.603 7.6695 182.605 6.66694 183.846 6.66694C184.748 6.66694 185.55 7.16822 185.939 7.81988V10.038ZM185.939 4.39866V5.46387C185.5 4.72449 184.41 4.21068 183.269 4.21068C180.913 4.21068 179.059 6.29098 179.059 8.89763C179.059 11.5043 180.913 13.6097 183.269 13.6097C184.41 13.6097 185.5 13.0958 185.939 12.3565V13.4217H188.62V4.39866H185.939Z" fill="#999999"/>
<path d="M150.022 10.0256C150.022 10.9404 149.283 11.6798 148.368 11.6798C147.453 11.6798 146.714 10.9404 146.714 10.0256C146.714 9.11072 147.453 8.37134 148.368 8.37134H150.022V10.0256ZM150.849 10.0256C150.849 9.11072 151.588 8.37134 152.503 8.37134C153.418 8.37134 154.158 9.11072 154.158 10.0256V14.1611C154.158 15.0759 153.418 15.8153 152.503 15.8153C151.588 15.8153 150.849 15.0759 150.849 14.1611V10.0256Z" fill="#999999"/>
<path d="M152.503 3.38364C151.588 3.38364 150.849 2.64425 150.849 1.72942C150.849 0.814582 151.588 0.0751953 152.503 0.0751953C153.418 0.0751953 154.157 0.814582 154.157 1.72942V3.38364H152.503ZM152.503 4.22328C153.418 4.22328 154.157 4.96266 154.157 5.8775C154.157 6.79233 153.418 7.53172 152.503 7.53172H148.355C147.44 7.53172 146.701 6.79233 146.701 5.8775C146.701 4.96266 147.44 4.22328 148.355 4.22328H152.503Z" fill="#999999"/>
<path d="M159.133 5.8775C159.133 4.96266 159.872 4.22328 160.787 4.22328C161.702 4.22328 162.441 4.96266 162.441 5.8775C162.441 6.79233 161.702 7.53172 160.787 7.53172H159.133V5.8775ZM158.306 5.8775C158.306 6.79233 157.566 7.53172 156.651 7.53172C155.737 7.53172 154.997 6.79233 154.997 5.8775V1.72942C154.997 0.814582 155.737 0.0751953 156.651 0.0751953C157.566 0.0751953 158.306 0.814582 158.306 1.72942V5.8775V5.8775Z" fill="#999999"/>
<path d="M156.651 12.5069C157.566 12.5069 158.306 13.2463 158.306 14.1611C158.306 15.0759 157.566 15.8153 156.651 15.8153C155.737 15.8153 154.997 15.0759 154.997 14.1611V12.5069H156.651ZM156.651 11.6798C155.737 11.6798 154.997 10.9404 154.997 10.0256C154.997 9.11072 155.737 8.37134 156.651 8.37134H160.799C161.714 8.37134 162.454 9.11072 162.454 10.0256C162.454 10.9404 161.714 11.6798 160.799 11.6798H156.651Z" fill="#999999"/>
</g>
<g clip-path="url(#clip3_75_182)">
<path d="M240.77 14.8897C239.885 15.0453 238.984 15.0919 238.052 15.2162L235.211 6.8854V15.5737C234.325 15.6669 233.518 15.7913 232.679 15.9156V0H235.04L238.27 9.03037V0H240.77V14.8897ZM245.661 5.82847C246.624 5.82847 248.099 5.78183 248.984 5.78183V8.26859C247.881 8.26859 246.593 8.26859 245.661 8.31523V12.0144C247.121 11.9212 248.58 11.7968 250.055 11.7501V14.1435L243.176 14.6876V0H250.055V2.48682H245.661V5.82847V5.82847ZM259.295 2.48687H256.717V13.9262C255.878 13.9262 255.04 13.9262 254.233 13.9572V2.48687H251.655V0H259.295L259.295 2.48687V2.48687ZM263.332 5.65755H266.733V8.14431H263.332V13.7863H260.894V0H267.835V2.48682H263.332V5.65755V5.65755ZM271.872 11.6103C273.285 11.6413 274.714 11.7503 276.096 11.8279V14.2836C273.876 14.1436 271.655 14.004 269.388 13.9572V0H271.872V11.6103ZM278.192 14.4546C278.984 14.5013 279.823 14.5479 280.63 14.6411V0H278.192V14.4546V14.4546ZM291.516 0L288.363 7.56926L291.516 15.9156C290.584 15.7913 289.652 15.6203 288.72 15.4648L286.935 10.8643L285.118 15.0919C284.217 14.9364 283.348 14.8897 282.447 14.7654L285.646 7.47592L282.758 0H285.428L287.059 4.18096L288.798 0H291.516V0Z" fill="#999999"/>
</g>
<g clip-path="url(#clip4_75_182)">
<path fill-rule="evenodd" clip-rule="evenodd" d="M347.976 12.4465C344.903 14.7086 340.449 15.9156 336.615 15.9156C331.238 15.9156 326.398 13.9293 322.736 10.6257C322.448 10.3659 322.706 10.0119 323.051 10.2142C327.003 12.5108 331.889 13.8925 336.937 13.8925C340.341 13.8925 344.086 13.189 347.529 11.7292C348.049 11.5085 348.484 12.0694 347.976 12.4465" fill="#999999"/>
<path fill-rule="evenodd" clip-rule="evenodd" d="M349.253 10.9866C348.862 10.4855 346.657 10.7499 345.667 10.8671C345.366 10.9039 345.32 10.6418 345.591 10.4533C347.347 9.21875 350.229 9.57509 350.565 9.9889C350.901 10.405 350.478 13.2902 348.827 14.6673C348.574 14.8788 348.332 14.7661 348.445 14.4856C348.816 13.5615 349.647 11.4901 349.253 10.9866" fill="#999999"/>
<path fill-rule="evenodd" clip-rule="evenodd" d="M345.736 1.73801V0.537957C345.736 0.356341 345.874 0.234497 346.04 0.234497H351.419C351.592 0.234497 351.73 0.35864 351.73 0.537957V1.56559C351.727 1.73801 351.582 1.9633 351.325 2.31964L348.537 6.29451C349.573 6.26923 350.666 6.42325 351.605 6.95201C351.817 7.07156 351.875 7.24628 351.891 7.4187V8.69921C351.891 8.87393 351.697 9.07853 351.495 8.97278C349.84 8.10608 347.642 8.01182 345.812 8.98198C345.626 9.08313 345.43 8.88083 345.43 8.70611V7.48997C345.43 7.29456 345.432 6.96121 345.628 6.66464L348.857 2.03917H346.047C345.874 2.03917 345.736 1.91733 345.736 1.73801" fill="#999999"/>
<path fill-rule="evenodd" clip-rule="evenodd" d="M326.115 9.22564H324.478C324.322 9.21415 324.197 9.0969 324.186 8.94747V0.558626C324.186 0.390803 324.326 0.257463 324.501 0.257463H326.027C326.186 0.264356 326.313 0.386204 326.324 0.537934V1.63453H326.354C326.752 0.574717 327.5 0.0804443 328.508 0.0804443C329.533 0.0804443 330.172 0.574717 330.633 1.63453C331.029 0.574717 331.929 0.0804443 332.893 0.0804443C333.579 0.0804443 334.329 0.363214 334.787 0.997723C335.305 1.7035 335.199 2.72883 335.199 3.62771L335.197 8.92218C335.197 9.09 335.057 9.22564 334.882 9.22564H333.247C333.084 9.21415 332.953 9.08311 332.953 8.92218V4.47602C332.953 4.12199 332.985 3.23919 332.907 2.90355C332.785 2.34031 332.419 2.18168 331.945 2.18168C331.549 2.18168 331.135 2.44606 330.967 2.86906C330.798 3.29207 330.815 4.00014 330.815 4.47602V8.92218C330.815 9.09 330.674 9.22564 330.499 9.22564H328.865C328.699 9.21415 328.57 9.08311 328.57 8.92218L328.568 4.47602C328.568 3.54035 328.722 2.16329 327.56 2.16329C326.384 2.16329 326.43 3.50587 326.43 4.47602V8.92218C326.43 9.09 326.29 9.22564 326.115 9.22564" fill="#999999"/>
<path fill-rule="evenodd" clip-rule="evenodd" d="M356.361 0.0804443C358.789 0.0804443 360.103 2.16329 360.103 4.81167C360.103 7.37039 358.651 9.40036 356.361 9.40036C353.976 9.40036 352.678 7.31752 352.678 4.72201C352.678 2.11041 353.992 0.0804443 356.361 0.0804443V0.0804443ZM356.374 1.79316C355.168 1.79316 355.092 3.4346 355.092 4.45763C355.092 5.48296 355.076 7.67156 356.361 7.67156C357.629 7.67156 357.689 5.90597 357.689 4.83006C357.689 4.12199 357.659 3.27598 357.445 2.60468C357.261 2.02075 356.895 1.79316 356.374 1.79316" fill="#999999"/>
<path fill-rule="evenodd" clip-rule="evenodd" d="M363.252 9.22564H361.622C361.459 9.21415 361.328 9.08311 361.328 8.92218L361.325 0.531037C361.339 0.377008 361.475 0.257463 361.641 0.257463H363.157C363.3 0.264356 363.417 0.360916 363.45 0.491956V1.77477H363.48C363.938 0.627593 364.58 0.0804443 365.71 0.0804443C366.444 0.0804443 367.16 0.344823 367.62 1.06899C368.048 1.74028 368.048 2.86906 368.048 3.68059V8.96126C368.03 9.10839 367.894 9.22564 367.733 9.22564H366.092C365.942 9.21415 365.818 9.1038 365.802 8.96126V4.40476C365.802 3.48748 365.908 2.14489 364.778 2.14489C364.38 2.14489 364.014 2.41157 363.832 2.81619C363.602 3.32885 363.572 3.83922 363.572 4.40476V8.92218C363.569 9.09 363.427 9.22564 363.252 9.22564" fill="#999999"/>
<path fill-rule="evenodd" clip-rule="evenodd" d="M341.448 5.2186C341.448 5.85541 341.464 6.38647 341.142 6.95201C340.882 7.4118 340.468 7.69457 340.01 7.69457C339.381 7.69457 339.013 7.21639 339.013 6.51061C339.013 5.11745 340.263 4.86457 341.448 4.86457V5.2186V5.2186ZM343.098 9.20268C342.99 9.29923 342.834 9.30613 342.712 9.24176C342.169 8.79117 342.07 8.58196 341.773 8.15206C340.875 9.06704 340.238 9.34061 339.075 9.34061C337.697 9.34061 336.626 8.4923 336.626 6.79338C336.626 5.46689 337.344 4.56341 338.371 4.12201C339.259 3.73119 340.5 3.66222 341.448 3.55417V3.34267C341.448 2.95414 341.478 2.49435 341.248 2.15871C341.05 1.85755 340.668 1.7334 340.33 1.7334C339.706 1.7334 339.151 2.05296 339.015 2.71505C338.988 2.86219 338.88 3.00702 338.73 3.01392L337.144 2.84379C337.011 2.81391 336.861 2.70586 336.9 2.50125C337.264 0.579336 339.004 0 340.56 0C341.356 0 342.396 0.211503 343.025 0.813826C343.821 1.55639 343.745 2.54723 343.745 3.62544V6.17267C343.745 6.93822 344.063 7.27386 344.362 7.68767C344.466 7.8348 344.489 8.01182 344.355 8.12217C344.021 8.40034 343.428 8.91761 343.101 9.20727L343.098 9.20267" fill="#999999"/>
<path fill-rule="evenodd" clip-rule="evenodd" d="M319.995 5.21861C319.995 5.85541 320.011 6.38647 319.688 6.95201C319.428 7.4118 319.016 7.69457 318.556 7.69457C317.928 7.69457 317.562 7.21639 317.562 6.51061C317.562 5.11745 318.811 4.86457 319.995 4.86457V5.21861V5.21861ZM321.645 9.20268C321.537 9.29923 321.38 9.30613 321.258 9.24176C320.715 8.79117 320.618 8.58196 320.319 8.15206C319.421 9.06704 318.786 9.34061 317.622 9.34061C316.245 9.34061 315.173 8.4923 315.173 6.79338C315.173 5.46689 315.893 4.56341 316.917 4.12201C317.806 3.73119 319.046 3.66222 319.995 3.55417V3.34267C319.995 2.95414 320.024 2.49436 319.797 2.15871C319.596 1.85755 319.214 1.7334 318.878 1.7334C318.254 1.7334 317.697 2.05296 317.562 2.71505C317.534 2.86219 317.426 3.00702 317.279 3.01392L315.69 2.84379C315.557 2.81391 315.41 2.70586 315.446 2.50125C315.812 0.579336 317.55 0 319.106 0C319.902 0 320.943 0.211503 321.571 0.813827C322.368 1.55639 322.292 2.54723 322.292 3.62544V6.17267C322.292 6.93822 322.609 7.27386 322.908 7.68767C323.014 7.8348 323.037 8.01182 322.904 8.12217C322.57 8.40035 321.976 8.91761 321.649 9.20728L321.645 9.20267" fill="#999999"/>
</g>
<defs>
<clipPath id="clip0_75_182">
<rect width="50.7945" height="15.9156" fill="white"/>
</clipPath>
<clipPath id="clip1_75_182">
<rect width="48.5047" height="15.9156" fill="white" transform="translate(74.4515)"/>
</clipPath>
<clipPath id="clip2_75_182">
<rect width="62.4092" height="15.9156" fill="white" transform="translate(146.613)"/>
</clipPath>
<clipPath id="clip3_75_182">
<rect width="58.836" height="15.9156" fill="white" transform="translate(232.679)"/>
</clipPath>
<clipPath id="clip4_75_182">
<rect width="52.8758" height="15.9156" fill="white" transform="translate(315.173)"/>
</clipPath>
</defs>
</svg>
