<svg width="24" height="24" viewBox="0 0 24 24" fill="none" xmlns="http://www.w3.org/2000/svg">
<path fill-rule="evenodd" clip-rule="evenodd" d="M7.26753 4.65843C10.4166 4.38469 13.5834 4.38469 16.7325 4.65843L18.2427 4.78971C19.6878 4.91533 20.8585 6.01497 21.0742 7.44937C21.5278 10.4661 21.5278 13.5337 21.0742 16.5504C21.0345 16.8143 20.9625 17.0668 20.8624 17.3041C20.796 17.4614 20.5912 17.4853 20.4764 17.3589L16.055 12.4954C15.8552 12.2756 15.5446 12.1945 15.2628 12.2884L12.732 13.132L9.06055 9.00161C8.92332 8.84722 8.7285 8.75627 8.52203 8.7502C8.31556 8.74413 8.11572 8.82349 7.96967 8.96955L3.05554 13.8837C2.9043 14.0349 2.64636 13.9386 2.6343 13.7251C2.51607 11.6312 2.61325 9.52822 2.92586 7.44936C3.14156 6.01497 4.31223 4.91533 5.7573 4.78971L7.26753 4.65843ZM14 8.99988C14 8.17145 14.6716 7.49988 15.5 7.49988C16.3284 7.49988 17 8.17145 17 8.99988C17 9.82831 16.3284 10.4999 15.5 10.4999C14.6716 10.4999 14 9.82831 14 8.99988Z" fill="black"/>
<path d="M2.96133 16.0992C2.90598 16.1546 2.87969 16.2326 2.89071 16.3102C2.90211 16.3903 2.91383 16.4703 2.92586 16.5504C3.14156 17.9848 4.31223 19.0844 5.7573 19.21L7.26753 19.3413C10.4166 19.6151 13.5834 19.6151 16.7325 19.3413L18.2427 19.21C18.6674 19.1731 19.0683 19.0521 19.4283 18.8632C19.5647 18.7916 19.5876 18.6113 19.484 18.4973L15.3832 13.9864C15.3166 13.9131 15.2131 13.8861 15.1192 13.9174L12.7372 14.7114C12.4525 14.8063 12.1388 14.7224 11.9394 14.4982L8.64403 10.7908C8.54847 10.6833 8.38211 10.6784 8.2804 10.7801L2.96133 16.0992Z" fill="black"/>
</svg>
