<svg width="26" height="26" viewBox="0 0 26 26" fill="none" xmlns="http://www.w3.org/2000/svg">
<circle cx="13.0297" cy="13" r="12.9703" fill="#6393E8"/>
<path d="M15.1914 10.2978C15.1914 9.99937 15.4334 9.75741 15.7319 9.75741C16.0303 9.75741 16.2723 9.99937 16.2723 10.2978C16.2723 10.5963 16.0303 10.8383 15.7319 10.8383C15.4334 10.8383 15.1914 10.5963 15.1914 10.2978Z" fill="white"/>
<path fill-rule="evenodd" clip-rule="evenodd" d="M13.0297 10.4329C11.612 10.4329 10.4627 11.5822 10.4627 13C10.4627 14.4177 11.612 15.567 13.0297 15.567C14.4474 15.567 15.5968 14.4177 15.5968 13C15.5968 11.5822 14.4474 10.4329 13.0297 10.4329ZM11.2733 13C11.2733 12.03 12.0597 11.2436 13.0297 11.2436C13.9997 11.2436 14.7861 12.03 14.7861 13C14.7861 13.97 13.9997 14.7564 13.0297 14.7564C12.0597 14.7564 11.2733 13.97 11.2733 13Z" fill="white"/>
<path fill-rule="evenodd" clip-rule="evenodd" d="M15.8714 8.04588C13.998 7.83649 12.0615 7.83649 10.188 8.04588C9.10064 8.16741 8.2228 9.02399 8.09496 10.117C7.87093 12.0325 7.87093 13.9675 8.09496 15.8829C8.2228 16.976 9.10064 17.8326 10.188 17.9541C12.0615 18.1635 13.998 18.1635 15.8714 17.9541C16.9588 17.8326 17.8366 16.976 17.9645 15.8829C18.1885 13.9675 18.1885 12.0325 17.9645 10.117C17.8366 9.02399 16.9588 8.16741 15.8714 8.04588ZM10.2781 8.85151C12.0917 8.64881 13.9678 8.64881 15.7814 8.85151C16.5002 8.93185 17.076 9.49909 17.1593 10.2112C17.376 12.0641 17.376 13.9359 17.1593 15.7888C17.076 16.5009 16.5002 17.0681 15.7814 17.1485C13.9678 17.3512 12.0917 17.3512 10.2781 17.1485C9.55923 17.0681 8.98341 16.5009 8.90012 15.7888C8.68341 13.9359 8.68341 12.0641 8.90012 10.2112C8.98341 9.49909 9.55923 8.93185 10.2781 8.85151Z" fill="white"/>
</svg>
