<svg width="20" height="20" viewBox="0 0 20 20" fill="none" xmlns="http://www.w3.org/2000/svg">
<circle cx="10" cy="10" r="10" fill="white"/>
<path d="M11.6667 7.91668C11.6667 7.68656 11.8532 7.50001 12.0833 7.50001C12.3135 7.50001 12.5 7.68656 12.5 7.91668C12.5 8.14679 12.3135 8.33334 12.0833 8.33334C11.8532 8.33334 11.6667 8.14679 11.6667 7.91668Z" fill="#6393E8"/>
<path fill-rule="evenodd" clip-rule="evenodd" d="M10 8.02084C8.90694 8.02084 8.02083 8.90695 8.02083 10C8.02083 11.0931 8.90694 11.9792 10 11.9792C11.0931 11.9792 11.9792 11.0931 11.9792 10C11.9792 8.90695 11.0931 8.02084 10 8.02084ZM8.64583 10C8.64583 9.25212 9.25211 8.64584 10 8.64584C10.7479 8.64584 11.3542 9.25212 11.3542 10C11.3542 10.7479 10.7479 11.3542 10 11.3542C9.25211 11.3542 8.64583 10.7479 8.64583 10Z" fill="#6393E8"/>
<path fill-rule="evenodd" clip-rule="evenodd" d="M12.1909 6.18043C10.7465 6.019 9.25348 6.019 7.80907 6.18043C6.97071 6.27413 6.29391 6.93455 6.19534 7.77727C6.02262 9.25406 6.02262 10.746 6.19534 12.2227C6.29391 13.0655 6.97071 13.7259 7.80907 13.8196C9.25348 13.981 10.7465 13.981 12.1909 13.8196C13.0293 13.7259 13.7061 13.0655 13.8047 12.2227C13.9774 10.746 13.9774 9.25406 13.8047 7.77727C13.7061 6.93455 13.0293 6.27413 12.1909 6.18043ZM7.87849 6.80156C9.27676 6.64529 10.7232 6.64529 12.1215 6.80156C12.6757 6.86351 13.1197 7.30084 13.1839 7.84988C13.351 9.27843 13.351 10.7216 13.1839 12.1501C13.1197 12.6992 12.6757 13.1365 12.1215 13.1985C10.7232 13.3547 9.27676 13.3547 7.87849 13.1985C7.32428 13.1365 6.88033 12.6992 6.81611 12.1501C6.64903 10.7216 6.64903 9.27843 6.81611 7.84988C6.88033 7.30084 7.32428 6.86351 7.87849 6.80156Z" fill="#6393E8"/>
</svg>
