<svg width="26" height="26" viewBox="0 0 26 26" fill="none" xmlns="http://www.w3.org/2000/svg">
<circle cx="13.0099" cy="13" r="12.9703" fill="#6393E8"/>
<path fill-rule="evenodd" clip-rule="evenodd" d="M9.2269 7.19037C8.40611 7.19037 7.74072 7.85575 7.74072 8.67655C7.74072 9.49734 8.40611 10.1627 9.2269 10.1627C10.0477 10.1627 10.7131 9.49734 10.7131 8.67655C10.7131 7.85575 10.0477 7.19037 9.2269 7.19037ZM8.55137 8.67655C8.55137 8.30346 8.85381 8.00101 9.2269 8.00101C9.59999 8.00101 9.90244 8.30346 9.90244 8.67655C9.90244 9.04964 9.59999 9.35208 9.2269 9.35208C8.85381 9.35208 8.55137 9.04964 8.55137 8.67655Z" fill="white"/>
<path fill-rule="evenodd" clip-rule="evenodd" d="M7.74072 10.8383C7.74072 10.6144 7.92219 10.4329 8.14604 10.4329H10.3078C10.5316 10.4329 10.7131 10.6144 10.7131 10.8383V17.8638C10.7131 18.0877 10.5316 18.2692 10.3078 18.2692H8.14604C7.92219 18.2692 7.74072 18.0877 7.74072 17.8638V10.8383ZM8.55137 11.2436V17.4585H9.90244V11.2436H8.55137Z" fill="white"/>
<path fill-rule="evenodd" clip-rule="evenodd" d="M11.5237 10.8383C11.5237 10.6144 11.7052 10.4329 11.929 10.4329H14.0908C14.3146 10.4329 14.4961 10.6144 14.4961 10.8383V11.0728L14.7313 10.972C15.1357 10.7987 15.5682 10.69 16.0056 10.6502C17.5053 10.5139 18.8195 11.6923 18.8195 13.2055V17.8638C18.8195 18.0877 18.638 18.2692 18.4142 18.2692H16.2525C16.0286 18.2692 15.8472 18.0877 15.8472 17.8638V14.0808C15.8472 13.9017 15.776 13.7299 15.6493 13.6032C15.5226 13.4765 15.3508 13.4053 15.1716 13.4053C14.9925 13.4053 14.8206 13.4765 14.6939 13.6032C14.5673 13.7299 14.4961 13.9017 14.4961 14.0808V17.8638C14.4961 18.0877 14.3146 18.2692 14.0908 18.2692H11.929C11.7052 18.2692 11.5237 18.0877 11.5237 17.8638V10.8383ZM12.3344 11.2436V17.4585H13.6854V14.0808C13.6854 13.6867 13.842 13.3087 14.1207 13.03C14.3994 12.7512 14.7775 12.5947 15.1716 12.5947C15.5658 12.5947 15.9438 12.7512 16.2225 13.03C16.5012 13.3087 16.6578 13.6867 16.6578 14.0808V17.4585H18.0089V13.2055C18.0089 12.1763 17.1112 11.3637 16.079 11.4575C15.7256 11.4897 15.3761 11.5776 15.0506 11.7171L14.2504 12.0601C14.1252 12.1137 13.9814 12.1009 13.8676 12.0259C13.7539 11.9509 13.6854 11.8238 13.6854 11.6875V11.2436H12.3344Z" fill="white"/>
</svg>
