<svg width="20" height="20" viewBox="0 0 20 20" fill="none" xmlns="http://www.w3.org/2000/svg">
<circle cx="10" cy="10" r="10" fill="white"/>
<path fill-rule="evenodd" clip-rule="evenodd" d="M7.08333 5.52084C6.45051 5.52084 5.9375 6.03385 5.9375 6.66668C5.9375 7.2995 6.45051 7.81251 7.08333 7.81251C7.71616 7.81251 8.22917 7.2995 8.22917 6.66668C8.22917 6.03385 7.71616 5.52084 7.08333 5.52084ZM6.5625 6.66668C6.5625 6.37903 6.79569 6.14584 7.08333 6.14584C7.37098 6.14584 7.60417 6.37903 7.60417 6.66668C7.60417 6.95433 7.37098 7.18751 7.08333 7.18751C6.79569 7.18751 6.5625 6.95433 6.5625 6.66668Z" fill="#6393E8"/>
<path fill-rule="evenodd" clip-rule="evenodd" d="M5.9375 8.33334C5.9375 8.16075 6.07741 8.02084 6.25 8.02084H7.91667C8.08926 8.02084 8.22917 8.16075 8.22917 8.33334V13.75C8.22917 13.9226 8.08926 14.0625 7.91667 14.0625H6.25C6.07741 14.0625 5.9375 13.9226 5.9375 13.75V8.33334ZM6.5625 8.64584V13.4375H7.60417V8.64584H6.5625Z" fill="#6393E8"/>
<path fill-rule="evenodd" clip-rule="evenodd" d="M8.85417 8.33334C8.85417 8.16075 8.99408 8.02084 9.16667 8.02084H10.8333C11.0059 8.02084 11.1458 8.16075 11.1458 8.33334V8.51419L11.3272 8.43646C11.639 8.30283 11.9725 8.21903 12.3097 8.18837C13.4659 8.08326 14.4792 8.99184 14.4792 10.1584V13.75C14.4792 13.9226 14.3393 14.0625 14.1667 14.0625H12.5C12.3274 14.0625 12.1875 13.9226 12.1875 13.75V10.8333C12.1875 10.6952 12.1326 10.5627 12.035 10.4651C11.9373 10.3674 11.8048 10.3125 11.6667 10.3125C11.5285 10.3125 11.3961 10.3674 11.2984 10.4651C11.2007 10.5627 11.1458 10.6952 11.1458 10.8333V13.75C11.1458 13.9226 11.0059 14.0625 10.8333 14.0625H9.16667C8.99408 14.0625 8.85417 13.9226 8.85417 13.75V8.33334ZM9.47917 8.64584V13.4375H10.5208V10.8333C10.5208 10.5294 10.6416 10.238 10.8564 10.0231C11.0713 9.80823 11.3628 9.68751 11.6667 9.68751C11.9706 9.68751 12.262 9.80823 12.4769 10.0231C12.6918 10.238 12.8125 10.5294 12.8125 10.8333V13.4375H13.8542V10.1584C13.8542 9.36496 13.1621 8.73846 12.3663 8.8108C12.0938 8.83558 11.8244 8.90337 11.5734 9.01093L10.9564 9.27534C10.8599 9.31672 10.749 9.30682 10.6613 9.24899C10.5736 9.19117 10.5208 9.09315 10.5208 8.98811V8.64584H9.47917Z" fill="#6393E8"/>
</svg>
