<svg width="30" height="34" viewBox="0 0 30 34" fill="none" xmlns="http://www.w3.org/2000/svg">
<path d="M25.0247 17.9406H24.9723V18.0455H25.0261C25.0559 18.0455 25.0772 18.0415 25.0898 18.0335C25.1023 18.0257 25.1087 18.0127 25.1087 17.9947C25.1087 17.9757 25.1021 17.9619 25.0888 17.9534C25.0757 17.9449 25.0542 17.9406 25.0247 17.9406ZM25.0341 17.9074C25.0773 17.9074 25.1093 17.9143 25.1303 17.9279C25.1512 17.9416 25.1618 17.9625 25.1618 17.9907C25.1618 18.0121 25.1554 18.03 25.1426 18.0443C25.1297 18.0585 25.1122 18.0677 25.0902 18.0715L25.1586 18.2103H25.1014L25.0374 18.0787H24.9723V18.2103H24.921V17.9074H25.0341ZM25.2621 18.0649C25.2621 18.0331 25.2563 18.0029 25.2447 17.9745C25.2331 17.9459 25.2163 17.9208 25.1946 17.899C25.1719 17.8766 25.1462 17.8596 25.1177 17.8481C25.0893 17.8364 25.0589 17.8306 25.0265 17.8306C24.9945 17.8306 24.9646 17.8363 24.9367 17.8475C24.9089 17.8588 24.8843 17.8753 24.8627 17.8968C24.8399 17.9196 24.8225 17.9453 24.8104 17.9739C24.7984 18.0024 24.7923 18.0323 24.7923 18.0635C24.7923 18.094 24.7982 18.1233 24.81 18.1513C24.8219 18.1794 24.8389 18.2048 24.8613 18.2273C24.8833 18.2495 24.9085 18.2663 24.9367 18.2781C24.9651 18.2898 24.9947 18.2957 25.0258 18.2957C25.0574 18.2957 25.0877 18.2899 25.1164 18.2782C25.145 18.2667 25.1709 18.2497 25.1938 18.2273C25.2159 18.2057 25.2328 18.181 25.2445 18.1532C25.2563 18.1254 25.2621 18.096 25.2621 18.0649ZM25.0269 17.7981C25.0633 17.7981 25.0976 17.8047 25.1302 17.8182C25.1626 17.8315 25.1917 17.8509 25.2174 17.8764C25.2421 17.9009 25.2611 17.9292 25.2743 17.9613C25.2876 17.9934 25.2941 18.0273 25.2941 18.0631C25.2941 18.0994 25.2876 18.1335 25.2743 18.1652C25.2611 18.197 25.2419 18.225 25.2167 18.2492C25.1902 18.2747 25.1607 18.2942 25.1282 18.3078C25.0955 18.3214 25.0618 18.3282 25.0269 18.3282C24.9916 18.3282 24.9579 18.3214 24.9256 18.308C24.8932 18.2946 24.8641 18.2749 24.8384 18.2492C24.813 18.2242 24.7936 18.1958 24.7802 18.1638C24.7669 18.1318 24.7603 18.0983 24.7603 18.0631C24.7603 18.0278 24.7672 17.9939 24.781 17.9614C24.7947 17.929 24.8148 17.8999 24.8407 17.8742C24.8651 17.8494 24.8932 17.8306 24.925 17.8175C24.9568 17.8046 24.9908 17.7981 25.0269 17.7981Z" fill="black"/>
<path d="M6.27976 20.6774C6.10047 20.6774 5.93272 20.6458 5.77655 20.5827C5.62036 20.5197 5.48515 20.4265 5.37094 20.3032C5.25668 20.1799 5.1663 20.0279 5.09977 19.8472C5.03326 19.6665 5 19.4601 5 19.2278C5 18.9984 5.034 18.7926 5.10197 18.6105C5.16993 18.4284 5.26246 18.2743 5.37958 18.1481C5.49674 18.0219 5.63411 17.9258 5.79173 17.8599C5.94935 17.794 6.11781 17.761 6.29713 17.761C6.47642 17.761 6.63549 17.7968 6.77431 17.8685C6.91314 17.9402 7.02737 18.0234 7.11704 18.118L6.84807 18.4406C6.77286 18.3661 6.6919 18.3065 6.60512 18.2621C6.51837 18.2176 6.42004 18.1954 6.31012 18.1954C6.19445 18.1954 6.08817 18.2191 5.9913 18.2664C5.89441 18.3137 5.81052 18.3811 5.73966 18.4686C5.66879 18.556 5.61385 18.6629 5.5748 18.789C5.53578 18.9152 5.51626 19.0571 5.51626 19.2149C5.51626 19.5361 5.58638 19.7877 5.72666 19.9698C5.8669 20.1519 6.05707 20.2429 6.29713 20.2429C6.42438 20.2429 6.53716 20.2164 6.63549 20.1634C6.73382 20.1103 6.82349 20.0408 6.90446 19.9547L7.17343 20.2687C7.05773 20.4007 6.92543 20.5017 6.7765 20.572C6.62754 20.6423 6.46197 20.6774 6.27976 20.6774ZM8.35271 20.6774C8.21967 20.6774 8.09242 20.653 7.97093 20.6043C7.84946 20.5555 7.74174 20.4838 7.64775 20.3892C7.55376 20.2946 7.47926 20.1784 7.42432 20.0408C7.36938 19.9031 7.34191 19.7468 7.34191 19.5719C7.34191 19.397 7.36938 19.2407 7.42432 19.103C7.47926 18.9654 7.55376 18.8493 7.64775 18.7546C7.74174 18.66 7.84946 18.5876 7.97093 18.5374C8.09242 18.4872 8.21967 18.4621 8.35271 18.4621C8.48571 18.4621 8.6137 18.4872 8.73661 18.5374C8.85955 18.5876 8.96727 18.66 9.05981 18.7546C9.15235 18.8493 9.22682 18.9654 9.28324 19.103C9.33962 19.2407 9.3678 19.397 9.3678 19.5719C9.3678 19.7468 9.33962 19.9031 9.28324 20.0408C9.22682 20.1784 9.15235 20.2946 9.05981 20.3892C8.96727 20.4838 8.85955 20.5555 8.73661 20.6043C8.6137 20.653 8.48571 20.6774 8.35271 20.6774ZM8.35271 20.2731C8.50887 20.2731 8.63178 20.2092 8.72143 20.0816C8.8111 19.954 8.85591 19.7841 8.85591 19.5719C8.85591 19.3568 8.8111 19.1855 8.72143 19.0579C8.63178 18.9303 8.50887 18.8664 8.35271 18.8664C8.19651 18.8664 8.07434 18.9303 7.9861 19.0579C7.89791 19.1855 7.85381 19.3568 7.85381 19.5719C7.85381 19.7841 7.89791 19.954 7.9861 20.0816C8.07434 20.2092 8.19651 20.2731 8.35271 20.2731ZM9.65341 20.6258V18.5137H10.0656L10.1003 18.888H10.1176C10.1928 18.7503 10.2839 18.6449 10.3909 18.5718C10.4979 18.4987 10.6078 18.4621 10.7206 18.4621C10.8218 18.4621 10.9028 18.4764 10.9635 18.5051L10.8768 18.9353C10.8392 18.9238 10.8045 18.9152 10.7727 18.9095C10.7408 18.9037 10.7018 18.9009 10.6555 18.9009C10.5717 18.9009 10.4835 18.9331 10.3909 18.9977C10.2984 19.0622 10.2188 19.1747 10.1523 19.3353V20.6258H9.65341ZM12.017 20.6774C11.8695 20.6774 11.7321 20.6523 11.6049 20.6021C11.4777 20.5519 11.3663 20.4795 11.2708 20.3849C11.1754 20.2902 11.1009 20.1748 11.0475 20.0386C10.9939 19.9024 10.9672 19.7468 10.9672 19.5719C10.9672 19.3998 10.9947 19.245 11.0496 19.1073C11.1045 18.9697 11.1776 18.8536 11.2687 18.7589C11.3598 18.6643 11.4646 18.5912 11.5832 18.5396C11.7018 18.4879 11.8232 18.4621 11.9476 18.4621C12.0922 18.4621 12.2195 18.4865 12.3294 18.5353C12.4393 18.584 12.5311 18.6528 12.6048 18.7417C12.6786 18.8306 12.7342 18.9367 12.7719 19.06C12.8095 19.1833 12.8282 19.3181 12.8282 19.4644C12.8282 19.5131 12.8261 19.559 12.8217 19.602C12.8174 19.645 12.8123 19.6794 12.8066 19.7052H11.4531C11.4762 19.8945 11.5434 20.0401 11.6548 20.1418C11.7661 20.2437 11.9086 20.2946 12.0821 20.2946C12.1747 20.2946 12.2607 20.2809 12.3402 20.2537C12.4198 20.2265 12.4986 20.1885 12.5766 20.1397L12.7458 20.4494C12.6446 20.5154 12.5318 20.5699 12.4074 20.6128C12.2831 20.6559 12.1529 20.6774 12.017 20.6774ZM11.4487 19.3697H12.3945C12.3945 19.2063 12.359 19.0779 12.2882 18.9847C12.2173 18.8916 12.1081 18.8449 11.9606 18.8449C11.8334 18.8449 11.722 18.8894 11.6266 18.9783C11.5311 19.0672 11.4719 19.1977 11.4487 19.3697ZM13.6691 20.6774C13.4898 20.6774 13.364 20.6243 13.2917 20.5182C13.2194 20.4121 13.1833 20.2673 13.1833 20.0838V17.8164H13.6822V20.1096C13.6822 20.1698 13.6937 20.2121 13.7169 20.2365C13.74 20.2609 13.7646 20.2731 13.7906 20.2731C13.8022 20.2731 13.813 20.2731 13.8231 20.2731C13.8333 20.2731 13.8485 20.2702 13.8687 20.2644L13.9338 20.6344C13.8672 20.6631 13.779 20.6774 13.6691 20.6774ZM14.2801 20.6258V17.8126H15.0393C15.4731 17.8126 15.8115 17.9287 16.0544 18.161C16.2974 18.3933 16.4188 18.7417 16.4188 19.2063C16.4188 19.4386 16.3877 19.6436 16.3256 19.8214C16.2634 19.9992 16.1737 20.1476 16.0566 20.2666C15.9395 20.3856 15.7978 20.4752 15.6315 20.5354C15.4651 20.5957 15.2764 20.6258 15.0653 20.6258H14.2801ZM14.7834 20.2214H15.0046C15.2938 20.2214 15.5158 20.139 15.6705 19.9741C15.8252 19.8092 15.9026 19.5533 15.9026 19.2063C15.9026 18.8622 15.8245 18.6112 15.6683 18.4535C15.5122 18.2958 15.2909 18.2169 15.0046 18.2169H14.7834V20.2214ZM16.7825 20.6258V17.8126H17.7413C17.8887 17.8126 18.0261 17.8269 18.1534 17.8556C18.2806 17.8843 18.3905 17.9309 18.4831 17.9954C18.5756 18.0599 18.6486 18.1452 18.7022 18.2513C18.7557 18.3574 18.7824 18.4894 18.7824 18.6471C18.7824 18.8622 18.7311 19.0356 18.6284 19.1676C18.5257 19.2995 18.3891 19.3941 18.2185 19.4515L18.8952 20.6258H18.3312L17.7196 19.5246H17.2858V20.6258H16.7825ZM17.2858 19.1288H17.6892C17.883 19.1288 18.0312 19.0887 18.1338 19.0084C18.2365 18.9281 18.2879 18.8077 18.2879 18.6471C18.2879 18.4836 18.2365 18.3704 18.1338 18.3073C18.0312 18.2442 17.883 18.2126 17.6892 18.2126H17.2858V19.1288ZM19.9573 19.1288L19.8576 19.473H20.5821L20.4823 19.1288C20.436 18.9797 20.3919 18.8263 20.35 18.6686C20.308 18.5109 20.2668 18.3546 20.2263 18.1997H20.209C20.1685 18.3574 20.128 18.5145 20.0875 18.6707C20.047 18.827 20.0036 18.9797 19.9573 19.1288ZM19.0073 20.6258L19.9313 17.8126H20.5213L21.4454 20.6258H20.9161L20.6949 19.8644H19.7405L19.5192 20.6258H19.0073ZM21.783 20.6258L21.2191 17.8126H21.7353L21.9826 19.2321C22.0057 19.3841 22.0288 19.5346 22.052 19.6837C22.0751 19.8329 22.0983 19.982 22.1214 20.1311H22.1387C22.1705 19.982 22.2016 19.8321 22.232 19.6816C22.2624 19.531 22.2935 19.3812 22.3253 19.2321L22.6723 17.8126H23.1105L23.4575 19.2321C23.4894 19.3783 23.5212 19.5267 23.553 19.6773C23.5848 19.8278 23.6166 19.9791 23.6484 20.1311H23.6658C23.6889 19.9791 23.7113 19.8286 23.733 19.6794C23.7547 19.5303 23.7771 19.3812 23.8002 19.2321L24.0475 17.8126H24.5291L23.9868 20.6258H23.3621L23.0107 19.1461C22.9876 19.0371 22.9652 18.9288 22.9435 18.8213C22.9218 18.7138 22.9023 18.6055 22.8849 18.4965H22.8675C22.8473 18.6055 22.8263 18.7138 22.8046 18.8213C22.783 18.9288 22.7605 19.0371 22.7374 19.1461L22.3947 20.6258H21.783Z" fill="black"/>
<path d="M6.01401 23C5.89282 23 5.78142 22.9794 5.67982 22.9382C5.57822 22.897 5.49108 22.8374 5.41836 22.7594C5.34565 22.6815 5.28879 22.5856 5.24776 22.4718C5.20674 22.3581 5.18625 22.2295 5.18625 22.0862C5.18625 21.9446 5.20723 21.8174 5.24915 21.7045C5.29114 21.5916 5.34936 21.4958 5.42397 21.4169C5.49852 21.3381 5.58754 21.2776 5.691 21.2355C5.79447 21.1934 5.90677 21.1724 6.02797 21.1724C6.09139 21.1724 6.14961 21.1786 6.20275 21.1912C6.25589 21.2037 6.30436 21.2203 6.34817 21.2409C6.39196 21.2615 6.43112 21.2848 6.4656 21.3108C6.50011 21.3367 6.5304 21.3632 6.5565 21.39L6.42787 21.5352C6.38126 21.4886 6.3272 21.4492 6.26565 21.4169C6.20416 21.3847 6.12679 21.3685 6.03358 21.3685C5.94035 21.3685 5.85647 21.3851 5.78188 21.4183C5.70731 21.4514 5.64393 21.4989 5.59175 21.5607C5.53952 21.6226 5.49898 21.6974 5.47007 21.7851C5.4412 21.8729 5.42674 21.9715 5.42674 22.0808C5.42674 22.1919 5.44024 22.2918 5.46731 22.3805C5.49431 22.4692 5.53349 22.5449 5.58474 22.6076C5.63603 22.6703 5.69939 22.7187 5.77489 22.7527C5.85038 22.7868 5.93757 22.8038 6.03637 22.8038C6.10163 22.8038 6.16359 22.7944 6.22231 22.7756C6.28105 22.7567 6.32904 22.7312 6.36635 22.699V22.2394H5.97763V22.0539H6.57887V22.7957C6.51919 22.8549 6.44092 22.9037 6.34395 22.9422C6.24703 22.9807 6.13704 23 6.01401 23ZM7.01788 22.9677V21.2046H7.59118C7.6844 21.2046 7.7706 21.2131 7.84984 21.2301C7.92907 21.2472 7.99713 21.2754 8.05397 21.3148C8.11082 21.3542 8.15509 21.4053 8.1868 21.468C8.21851 21.5307 8.23434 21.6078 8.23434 21.6991C8.23434 21.8371 8.19708 21.9473 8.12248 22.0297C8.04792 22.1121 7.94725 22.1686 7.82045 22.1991L8.28747 22.9677H8.02461L7.58279 22.2233H7.25002V22.9677H7.01788ZM7.25002 22.0405H7.5576C7.70116 22.0405 7.81114 22.0122 7.88757 21.9558C7.96401 21.8994 8.00222 21.8138 8.00222 21.6991C8.00222 21.5827 7.96401 21.5012 7.88757 21.4546C7.81114 21.408 7.70116 21.3847 7.5576 21.3847H7.25002V22.0405ZM8.91386 21.9813L8.82719 22.2501H9.37805L9.29137 21.9813C9.25783 21.8828 9.22614 21.7847 9.19631 21.6871C9.16647 21.5894 9.13666 21.4895 9.10683 21.3874H9.09564C9.06768 21.4895 9.03876 21.5894 9.00896 21.6871C8.97912 21.7847 8.94741 21.8828 8.91386 21.9813ZM8.35459 22.9677L8.97542 21.2046H9.23826L9.85905 22.9677H9.61019L9.4368 22.4302H8.76845L8.59227 22.9677H8.35459ZM10.0352 22.9677V21.2046H10.5581C10.6607 21.2046 10.7544 21.2136 10.8392 21.2315C10.924 21.2494 10.9963 21.2785 11.0559 21.3188C11.1156 21.3591 11.1622 21.4124 11.1957 21.4788C11.2293 21.5451 11.2461 21.6266 11.2461 21.7233C11.2461 21.8165 11.2298 21.8971 11.1972 21.9652C11.1645 22.0333 11.1184 22.0897 11.0587 22.1345C10.9991 22.1794 10.9278 22.2129 10.8448 22.2353C10.7618 22.2577 10.67 22.2689 10.5693 22.2689H10.2674V22.9677H10.0352ZM10.2674 22.0862H10.5414C10.7017 22.0862 10.8206 22.057 10.8979 21.9988C10.9753 21.9406 11.014 21.8487 11.014 21.7233C11.014 21.5961 10.9734 21.5079 10.8923 21.4586C10.8112 21.4093 10.6905 21.3847 10.5302 21.3847H10.2674V22.0862ZM11.5341 22.9677V21.2046H11.7662V21.9437H12.6191V21.2046H12.854V22.9677H12.6191V22.1372H11.7662V22.9677H11.5341ZM13.3573 22.9677V21.2046H13.5895V22.9677H13.3573ZM14.7025 23C14.5869 23 14.4806 22.9794 14.3837 22.9382C14.2867 22.897 14.2023 22.8374 14.1305 22.7594C14.0588 22.6815 14.0029 22.5856 13.9628 22.4718C13.9227 22.3581 13.9027 22.2295 13.9027 22.0862C13.9027 21.9446 13.9232 21.8174 13.9642 21.7045C14.0052 21.5916 14.0621 21.4958 14.1348 21.4169C14.2075 21.3381 14.2932 21.2776 14.392 21.2355C14.4908 21.1934 14.599 21.1724 14.7164 21.1724C14.8283 21.1724 14.9266 21.1943 15.0114 21.2382C15.0963 21.2821 15.1657 21.3327 15.2198 21.39L15.0939 21.5352C15.0454 21.485 14.9905 21.4447 14.9289 21.4142C14.8674 21.3838 14.7975 21.3685 14.7192 21.3685C14.6316 21.3685 14.5524 21.3851 14.4815 21.4183C14.4107 21.4514 14.3501 21.4989 14.2998 21.5607C14.2494 21.6226 14.2107 21.6974 14.1837 21.7851C14.1567 21.8729 14.1431 21.9715 14.1431 22.0808C14.1431 22.1919 14.1567 22.2918 14.1837 22.3805C14.2107 22.4692 14.2485 22.5449 14.297 22.6076C14.3454 22.6703 14.4046 22.7187 14.4745 22.7527C14.5444 22.7868 14.6232 22.8038 14.7108 22.8038C14.8003 22.8038 14.8786 22.7863 14.9457 22.7514C15.0128 22.7164 15.0762 22.6676 15.1359 22.6049L15.2645 22.7447C15.1918 22.8253 15.1098 22.888 15.0184 22.9328C14.9271 22.9776 14.8218 23 14.7025 23ZM16.0475 23C15.9189 23 15.7996 22.9767 15.6896 22.9301C15.5796 22.8835 15.4845 22.8199 15.4044 22.7393L15.5442 22.5834C15.6094 22.6497 15.6863 22.703 15.7749 22.7433C15.8634 22.7836 15.9553 22.8038 16.0503 22.8038C16.1715 22.8038 16.2657 22.7774 16.3327 22.7245C16.3999 22.6716 16.4334 22.6022 16.4334 22.5162C16.4334 22.4714 16.4255 22.4333 16.4097 22.402C16.3938 22.3706 16.3724 22.3437 16.3453 22.3213C16.3183 22.2989 16.2862 22.2788 16.2489 22.2609C16.2116 22.243 16.1715 22.2241 16.1286 22.2044L15.8658 22.0942C15.8229 22.0763 15.7791 22.0548 15.7343 22.0297C15.6896 22.0046 15.6495 21.9742 15.6141 21.9383C15.5787 21.9025 15.5497 21.8599 15.5274 21.8107C15.505 21.7614 15.4938 21.7045 15.4938 21.64C15.4938 21.5737 15.5083 21.5119 15.5372 21.4546C15.5661 21.3972 15.6061 21.3475 15.6574 21.3054C15.7087 21.2633 15.7693 21.2306 15.8392 21.2073C15.9091 21.184 15.986 21.1724 16.0699 21.1724C16.1799 21.1724 16.2815 21.1925 16.3747 21.2328C16.4679 21.2731 16.5472 21.3255 16.6124 21.39L16.4866 21.5352C16.4306 21.4832 16.3687 21.4424 16.3006 21.4129C16.2326 21.3833 16.1556 21.3685 16.0699 21.3685C15.9674 21.3685 15.8849 21.3914 15.8224 21.4371C15.76 21.4828 15.7287 21.5459 15.7287 21.6266C15.7287 21.6696 15.7376 21.7059 15.7553 21.7354C15.773 21.765 15.7968 21.791 15.8266 21.8134C15.8565 21.8358 15.8891 21.8555 15.9245 21.8725C15.9599 21.8895 15.9962 21.9052 16.0336 21.9195L16.2936 22.027C16.3458 22.0485 16.3952 22.0732 16.4418 22.101C16.4884 22.1287 16.5285 22.161 16.5621 22.1977C16.5956 22.2344 16.6222 22.2774 16.6417 22.3267C16.6614 22.376 16.6711 22.4329 16.6711 22.4974C16.6711 22.5673 16.6567 22.6327 16.6278 22.6936C16.5989 22.7545 16.5574 22.8078 16.5033 22.8535C16.4493 22.8992 16.3841 22.935 16.3076 22.961C16.2311 22.987 16.1445 23 16.0475 23ZM18.1001 23C17.9715 23 17.8522 22.9767 17.7422 22.9301C17.6322 22.8835 17.5371 22.8199 17.4569 22.7393L17.5968 22.5834C17.662 22.6497 17.7389 22.703 17.8274 22.7433C17.916 22.7836 18.0078 22.8038 18.1029 22.8038C18.2241 22.8038 18.3182 22.7774 18.3853 22.7245C18.4525 22.6716 18.486 22.6022 18.486 22.5162C18.486 22.4714 18.4781 22.4333 18.4622 22.402C18.4464 22.3706 18.425 22.3437 18.3979 22.3213C18.3709 22.2989 18.3387 22.2788 18.3015 22.2609C18.2642 22.243 18.2241 22.2241 18.1812 22.2044L17.9183 22.0942C17.8755 22.0763 17.8317 22.0548 17.7869 22.0297C17.7422 22.0046 17.7021 21.9742 17.6667 21.9383C17.6312 21.9025 17.6023 21.8599 17.58 21.8107C17.5576 21.7614 17.5464 21.7045 17.5464 21.64C17.5464 21.5737 17.5609 21.5119 17.5898 21.4546C17.6187 21.3972 17.6587 21.3475 17.71 21.3054C17.7613 21.2633 17.8219 21.2306 17.8918 21.2073C17.9617 21.184 18.0386 21.1724 18.1225 21.1724C18.2325 21.1724 18.3341 21.1925 18.4273 21.2328C18.5205 21.2731 18.5997 21.3255 18.665 21.39L18.5391 21.5352C18.4832 21.4832 18.4212 21.4424 18.3532 21.4129C18.2851 21.3833 18.2082 21.3685 18.1225 21.3685C18.0199 21.3685 17.9374 21.3914 17.875 21.4371C17.8126 21.4828 17.7813 21.5459 17.7813 21.6266C17.7813 21.6696 17.7902 21.7059 17.8079 21.7354C17.8256 21.765 17.8494 21.791 17.8792 21.8134C17.909 21.8358 17.9417 21.8555 17.9771 21.8725C18.0125 21.8895 18.0488 21.9052 18.0861 21.9195L18.3462 22.027C18.3984 22.0485 18.4478 22.0732 18.4944 22.101C18.541 22.1287 18.5811 22.161 18.6147 22.1977C18.6482 22.2344 18.6748 22.2774 18.6943 22.3267C18.7139 22.376 18.7237 22.4329 18.7237 22.4974C18.7237 22.5673 18.7093 22.6327 18.6804 22.6936C18.6514 22.7545 18.61 22.8078 18.5559 22.8535C18.5019 22.8992 18.4366 22.935 18.3602 22.961C18.2837 22.987 18.1971 23 18.1001 23ZM19.6521 23C19.5589 23 19.4717 22.987 19.3906 22.961C19.3096 22.935 19.2396 22.892 19.1809 22.832C19.1222 22.772 19.0761 22.6936 19.0425 22.5968C19.0089 22.5001 18.9922 22.3809 18.9922 22.2394V21.2046H19.2243V22.2448C19.2243 22.3505 19.2354 22.4391 19.2578 22.5108C19.2802 22.5825 19.3105 22.6398 19.3487 22.6828C19.3869 22.7258 19.4321 22.7567 19.4843 22.7756C19.5365 22.7944 19.5924 22.8038 19.6521 22.8038C19.7136 22.8038 19.7705 22.7944 19.8227 22.7756C19.8749 22.7567 19.9206 22.7258 19.9597 22.6828C19.9989 22.6398 20.0296 22.5825 20.052 22.5108C20.0744 22.4391 20.0855 22.3505 20.0855 22.2448V21.2046H20.3093V22.2394C20.3093 22.3809 20.2925 22.5001 20.2589 22.5968C20.2254 22.6936 20.1792 22.772 20.1205 22.832C20.0618 22.892 19.9923 22.935 19.9122 22.961C19.832 22.987 19.7453 23 19.6521 23ZM20.7203 22.9677V21.2046H20.9524V22.9677H20.7203ZM21.7522 22.9677V21.3927H21.1985V21.2046H22.5408V21.3927H21.9871V22.9677H21.7522ZM22.8707 22.9677V21.2046H23.9278V21.3927H23.1029V21.9464H23.7992V22.1372H23.1029V22.7769H23.9558V22.9677H22.8707Z" fill="black"/>
<path fill-rule="evenodd" clip-rule="evenodd" d="M15.1141 13.4983H14.884C13.9515 10.4261 13.4077 7.77911 13.2853 5.66092C13.1084 2.60278 13.7387 0.646675 14.748 0.104432C14.842 0.0539958 14.947 0.0145558 15.1141 0.0119327C15.2812 0.0145558 15.3861 0.0539958 15.4801 0.104432C16.4896 0.646792 17.1199 2.6036 16.9428 5.66294C16.8201 7.7808 16.2763 10.4271 15.3442 13.4983H15.1141ZM14.2583 0C14.2583 0 11.5137 1.03006 11.7112 4.99176C11.9088 8.95342 14.6387 13.4962 14.6387 13.4962C12.9581 12.0177 10.4688 7.41166 10.4208 4.70122C10.4578 1.84112 12.3577 0.683655 12.8953 0.429602C13.4329 0.175548 14.0024 0.0107851 14.2583 0ZM11.8614 0.696127C11.8614 0.696127 8.91315 1.9003 9.4962 5.37672C10.0792 8.85314 13.1819 12.5631 14.1033 13.3511C14.4337 13.6515 10.2957 9.07175 9.89448 5.04903C9.70244 3.53025 10.15 1.84669 11.8614 0.696127ZM18.4327 0.696127C18.4327 0.696127 21.381 1.9003 20.7979 5.37672C20.2149 8.85314 17.1122 12.5631 16.1908 13.3511C15.8604 13.6515 19.9984 9.07175 20.3996 5.04903C20.5917 3.53025 20.1441 1.84669 18.4327 0.696127ZM16.0228 0C16.0228 0 18.7674 1.03006 18.5699 4.99176C18.3723 8.95342 15.6423 13.4962 15.6423 13.4962C17.323 12.0177 19.8122 7.41166 19.8602 4.70122C19.8233 1.84112 17.9234 0.683655 17.3858 0.429602C16.8482 0.175548 16.2787 0.0107851 16.0228 0Z" fill="black"/>
<path fill-rule="evenodd" clip-rule="evenodd" d="M16.2897 14.2798H13.9384L14.2542 15.6882H15.9698L16.2897 14.2798Z" fill="black"/>
</svg>
