<svg width="67" height="11" viewBox="0 0 67 11" fill="none" xmlns="http://www.w3.org/2000/svg">
<path d="M5.07731 1.30091C5.21035 0.891439 5.78965 0.89144 5.92269 1.30091L6.63504 3.4933C6.69454 3.67642 6.86519 3.80041 7.05773 3.80041H9.36295C9.7935 3.80041 9.97251 4.35135 9.62419 4.60441L7.75923 5.95939C7.60346 6.07256 7.53828 6.27317 7.59778 6.45629L8.31013 8.64868C8.44317 9.05815 7.97451 9.39865 7.6262 9.14559L5.76124 7.79061C5.60547 7.67744 5.39453 7.67744 5.23876 7.79061L3.3738 9.14559C3.02548 9.39865 2.55683 9.05815 2.68987 8.64868L3.40222 6.45629C3.46172 6.27317 3.39654 6.07256 3.24077 5.95939L1.37581 4.60441C1.02749 4.35135 1.2065 3.80041 1.63705 3.80041H3.94227C4.13481 3.80041 4.30546 3.67642 4.36496 3.4933L5.07731 1.30091Z" fill="#FFC806"/>
<path d="M19.0773 1.30091C19.2104 0.891439 19.7896 0.89144 19.9227 1.30091L20.635 3.4933C20.6945 3.67642 20.8652 3.80041 21.0577 3.80041H23.363C23.7935 3.80041 23.9725 4.35135 23.6242 4.60441L21.7592 5.95939C21.6035 6.07256 21.5383 6.27317 21.5978 6.45629L22.3101 8.64868C22.4432 9.05815 21.9745 9.39865 21.6262 9.14559L19.7612 7.79061C19.6055 7.67744 19.3945 7.67744 19.2388 7.79061L17.3738 9.14559C17.0255 9.39865 16.5568 9.05815 16.6899 8.64868L17.4022 6.45629C17.4617 6.27317 17.3965 6.07256 17.2408 5.95939L15.3758 4.60441C15.0275 4.35135 15.2065 3.80041 15.637 3.80041H17.9423C18.1348 3.80041 18.3055 3.67642 18.365 3.4933L19.0773 1.30091Z" fill="#FFC806"/>
<path d="M47.0773 1.30091C47.2104 0.891439 47.7896 0.89144 47.9227 1.30091L48.635 3.4933C48.6945 3.67642 48.8652 3.80041 49.0577 3.80041H51.363C51.7935 3.80041 51.9725 4.35135 51.6242 4.60441L49.7592 5.95939C49.6035 6.07256 49.5383 6.27317 49.5978 6.45629L50.3101 8.64868C50.4432 9.05815 49.9745 9.39865 49.6262 9.14559L47.7612 7.79061C47.6055 7.67744 47.3945 7.67744 47.2388 7.79061L45.3738 9.14559C45.0255 9.39865 44.5568 9.05815 44.6899 8.64868L45.4022 6.45629C45.4617 6.27317 45.3965 6.07256 45.2408 5.95939L43.3758 4.60441C43.0275 4.35135 43.2065 3.80041 43.637 3.80041H45.9423C46.1348 3.80041 46.3055 3.67642 46.365 3.4933L47.0773 1.30091Z" fill="#FFC806"/>
<path d="M33.0773 1.30091C33.2104 0.891439 33.7896 0.89144 33.9227 1.30091L34.635 3.4933C34.6945 3.67642 34.8652 3.80041 35.0577 3.80041H37.363C37.7935 3.80041 37.9725 4.35135 37.6242 4.60441L35.7592 5.95939C35.6035 6.07256 35.5383 6.27317 35.5978 6.45629L36.3101 8.64868C36.4432 9.05815 35.9745 9.39865 35.6262 9.14559L33.7612 7.79061C33.6055 7.67744 33.3945 7.67744 33.2388 7.79061L31.3738 9.14559C31.0255 9.39865 30.5568 9.05815 30.6899 8.64868L31.4022 6.45629C31.4617 6.27317 31.3965 6.07256 31.2408 5.95939L29.3758 4.60441C29.0275 4.35135 29.2065 3.80041 29.637 3.80041H31.9423C32.1348 3.80041 32.3055 3.67642 32.365 3.4933L33.0773 1.30091Z" fill="#FFC806"/>
<path d="M61.0773 1.30091C61.2104 0.891439 61.7896 0.89144 61.9227 1.30091L62.635 3.4933C62.6945 3.67642 62.8652 3.80041 63.0577 3.80041H65.363C65.7935 3.80041 65.9725 4.35135 65.6242 4.60441L63.7592 5.95939C63.6035 6.07256 63.5383 6.27317 63.5978 6.45629L64.3101 8.64868C64.4432 9.05815 63.9745 9.39865 63.6262 9.14559L61.7612 7.79061C61.6055 7.67744 61.3945 7.67744 61.2388 7.79061L59.3738 9.14559C59.0255 9.39865 58.5568 9.05815 58.6899 8.64868L59.4022 6.45629C59.4617 6.27317 59.3965 6.07256 59.2408 5.95939L57.3758 4.60441C57.0275 4.35135 57.2065 3.80041 57.637 3.80041H59.9423C60.1348 3.80041 60.3055 3.67642 60.365 3.4933L61.0773 1.30091Z" fill="#FFC806"/>
</svg>
