<svg width="26" height="26" viewBox="0 0 26 26" fill="none" xmlns="http://www.w3.org/2000/svg">
<circle cx="12.9901" cy="13" r="12.9703" fill="#6393E8"/>
<path d="M11.3072 10.3896C11.406 10.3923 11.5157 10.3976 11.62 10.6291C11.6891 10.7833 11.8056 11.067 11.9005 11.2981C11.9744 11.4779 12.0352 11.6259 12.0504 11.6562C12.0851 11.7254 12.1065 11.8052 12.0611 11.8983C12.0557 11.9093 12.0506 11.9198 12.0458 11.9299C12.0093 12.0056 11.9834 12.0594 11.9221 12.1299C11.8969 12.1588 11.8706 12.1905 11.8444 12.2221C11.7984 12.2777 11.7527 12.333 11.7135 12.372C11.644 12.4411 11.5718 12.5157 11.652 12.6541C11.7322 12.7924 12.013 13.2474 12.4273 13.6146C12.8728 14.0112 13.2602 14.1784 13.456 14.2629C13.494 14.2793 13.5248 14.2926 13.5474 14.3038C13.6865 14.373 13.7693 14.3623 13.8495 14.2692C13.9298 14.1761 14.1971 13.8647 14.2907 13.7264C14.3816 13.588 14.4751 13.6093 14.6035 13.6572C14.7318 13.7051 15.4162 14.0404 15.5552 14.1095C15.5826 14.1232 15.6084 14.1355 15.6322 14.147C15.7289 14.1934 15.7946 14.2249 15.8225 14.2719C15.8573 14.3304 15.8573 14.6071 15.7423 14.9318C15.6247 15.2564 15.0579 15.5677 14.8013 15.5917C14.777 15.594 14.7528 15.5969 14.7279 15.5999C14.4927 15.6283 14.1941 15.6645 13.1304 15.2458C11.8197 14.7303 10.9544 13.4515 10.7795 13.1929C10.7657 13.1725 10.7562 13.1584 10.7511 13.1516L10.7481 13.1477C10.6685 13.0412 10.1816 12.3897 10.1816 11.7175C10.1816 11.0743 10.4984 10.7395 10.643 10.5868C10.6521 10.5771 10.6606 10.5682 10.6682 10.5599C10.7965 10.4216 10.9463 10.387 11.0398 10.387C11.1334 10.387 11.227 10.387 11.3072 10.3896Z" fill="white"/>
<path fill-rule="evenodd" clip-rule="evenodd" d="M7.68534 18.043C7.64112 18.2034 7.7873 18.3516 7.94838 18.3095L10.4383 17.6592C11.2243 18.0849 12.1092 18.3111 13.0102 18.3111H13.0128C15.9776 18.3111 18.3944 15.9083 18.3944 12.9547C18.3944 11.5232 17.8356 10.1767 16.8197 9.16558C15.8039 8.15447 14.4538 7.59569 13.0128 7.59569C10.048 7.59569 7.63126 9.99846 7.63126 12.9521C7.63092 13.8917 7.87893 14.8148 8.3504 15.6289L7.68534 18.043ZM9.13192 15.8442C9.18965 15.6347 9.16081 15.4107 9.05188 15.2226C8.65188 14.532 8.44161 13.7487 8.4419 12.9521C8.4419 10.45 10.4919 8.40633 13.0128 8.40633C14.2395 8.40633 15.384 8.88028 16.2479 9.74014C17.1108 10.599 17.5837 11.7387 17.5837 12.9547C17.5837 15.4567 15.5338 17.5004 13.0128 17.5004H13.0102C12.2446 17.5004 11.4924 17.3082 10.8244 16.9464C10.6436 16.8484 10.4324 16.8229 10.2335 16.8748L8.74057 17.2648L9.13192 15.8442Z" fill="white"/>
</svg>
