<svg width="20" height="20" viewBox="0 0 20 20" fill="none" xmlns="http://www.w3.org/2000/svg">
<circle cx="10" cy="10" r="10" fill="white"/>
<path d="M8.70248 7.98745C8.77871 7.98949 8.86323 7.99361 8.94364 8.17211C8.99696 8.29093 9.08679 8.50968 9.15996 8.68787C9.2169 8.82654 9.26375 8.94064 9.27548 8.96399C9.30227 9.01733 9.31876 9.07887 9.28372 9.15066C9.27959 9.15913 9.27569 9.16723 9.27193 9.17502C9.24382 9.23336 9.22382 9.27487 9.17655 9.32915C9.15712 9.35146 9.13687 9.37592 9.1167 9.4003C9.08123 9.44317 9.04598 9.48576 9.01577 9.51585C8.96219 9.56915 8.90651 9.62664 8.96834 9.7333C9.03021 9.83997 9.24663 10.1908 9.56612 10.4739C9.90959 10.7797 10.2083 10.9086 10.3592 10.9737C10.3885 10.9863 10.4123 10.9966 10.4297 11.0053C10.5369 11.0586 10.6008 11.0504 10.6626 10.9786C10.7245 10.9068 10.9306 10.6667 11.0027 10.5601C11.0728 10.4534 11.145 10.4698 11.2439 10.5067C11.3428 10.5437 11.8705 10.8021 11.9777 10.8555C11.9988 10.866 12.0187 10.8755 12.037 10.8843C12.1116 10.9201 12.1623 10.9444 12.1838 10.9806C12.2106 11.0258 12.2106 11.2391 12.1219 11.4894C12.0313 11.7397 11.5943 11.9797 11.3964 11.9982C11.3777 12 11.359 12.0022 11.3398 12.0045C11.1585 12.0265 10.9283 12.0543 10.1082 11.7315C9.0976 11.3341 8.43051 10.3481 8.29564 10.1487C8.28499 10.133 8.27766 10.1222 8.27374 10.1169L8.27146 10.1139C8.2101 10.0318 7.8347 9.52945 7.8347 9.0112C7.8347 8.51535 8.07896 8.2572 8.19037 8.13946C8.19743 8.13199 8.20396 8.1251 8.20986 8.11874C8.30878 8.01207 8.42423 7.9854 8.49636 7.9854C8.56852 7.9854 8.64065 7.9854 8.70248 7.98745Z" fill="#6393E8"/>
<path fill-rule="evenodd" clip-rule="evenodd" d="M5.91008 13.8881C5.87598 14.0118 5.98869 14.1261 6.11288 14.0936L8.0326 13.5922C8.63858 13.9204 9.32083 14.0948 10.0155 14.0948H10.0175C12.3034 14.0948 14.1667 12.2423 14.1667 9.96512C14.1667 8.8614 13.7358 7.82332 12.9526 7.04372C12.1694 6.26416 11.1285 5.83334 10.0175 5.83334C7.7317 5.83334 5.86838 7.68586 5.86838 9.96308C5.86812 10.6875 6.05933 11.3993 6.42283 12.0269L5.91008 13.8881ZM7.02538 12.1929C7.06989 12.0313 7.04766 11.8587 6.96367 11.7136C6.65527 11.1812 6.49316 10.5773 6.49338 9.96308C6.49338 8.034 8.07391 6.45834 10.0175 6.45834C10.9633 6.45834 11.8457 6.82375 12.5117 7.4867C13.177 8.14891 13.5417 9.02756 13.5417 9.96512C13.5417 11.8941 11.9612 13.4698 10.0175 13.4698H10.0155C9.42526 13.4698 8.84526 13.3216 8.33028 13.0426C8.19089 12.9671 8.02802 12.9474 7.87465 12.9875L6.72365 13.2881L7.02538 12.1929Z" fill="#6393E8"/>
</svg>
