<svg width="25" height="24" viewBox="0 0 25 24" fill="none" xmlns="http://www.w3.org/2000/svg">
<path d="M1.70578 11.9998C1.70578 16.0745 4.07385 19.5959 7.50774 21.2646L2.59706 7.8103C2.02586 9.09058 1.70578 10.5074 1.70578 11.9998Z" fill="black"/>
<path d="M18.9501 11.4803C18.9501 10.2081 18.4931 9.32698 18.1011 8.64119C17.5792 7.79322 17.0901 7.07512 17.0901 6.22715C17.0901 5.28085 17.8078 4.39997 18.8188 4.39997C18.8645 4.39997 18.9077 4.40565 18.9522 4.40819C17.1207 2.73027 14.6805 1.70581 12.0004 1.70581C8.40392 1.70581 5.23977 3.55102 3.39902 6.34585C3.64055 6.3531 3.86817 6.35819 4.06151 6.35819C5.1383 6.35819 6.80509 6.22754 6.80509 6.22754C7.36004 6.19483 7.42547 7.00989 6.87111 7.07551C6.87111 7.07551 6.31342 7.14113 5.69285 7.17365L9.44173 18.3242L11.6946 11.5677L10.0907 7.17326C9.53634 7.14074 9.01117 7.07512 9.01117 7.07512C8.45642 7.0426 8.52145 6.19444 9.0762 6.22715C9.0762 6.22715 10.7763 6.3578 11.7879 6.3578C12.8644 6.3578 14.5314 6.22715 14.5314 6.22715C15.0868 6.19444 15.152 7.0095 14.5975 7.07512C14.5975 7.07512 14.0386 7.14074 13.4192 7.17326L17.1395 18.2394L18.1663 14.8081C18.6114 13.3843 18.9501 12.3616 18.9501 11.4803Z" fill="black"/>
<path d="M12.181 12.9001L9.09226 21.8752C10.0145 22.1463 10.9898 22.2946 12.0004 22.2946C13.1992 22.2946 14.3489 22.0874 15.419 21.7111C15.3914 21.667 15.3663 21.6202 15.3457 21.5693L12.181 12.9001Z" fill="black"/>
<path d="M21.0335 7.06079C21.0778 7.3887 21.1028 7.7407 21.1028 8.11933C21.1028 9.16397 20.9077 10.3383 20.3201 11.8066L17.1755 20.8981C20.236 19.1134 22.2946 15.7977 22.2946 11.9999C22.2948 10.2102 21.8376 8.52716 21.0335 7.06079Z" fill="black"/>
<path d="M12.0004 0C5.38354 0 0 5.38302 0 11.9997C0 18.6172 5.38354 24 12.0004 24C18.617 24 24.0014 18.6172 24.0014 11.9997C24.0012 5.38302 18.617 0 12.0004 0ZM12.0004 23.45C5.68697 23.45 0.550245 18.3134 0.550245 11.9997C0.550245 5.68644 5.68678 0.550231 12.0004 0.550231C18.3136 0.550231 23.4499 5.68644 23.4499 11.9997C23.4499 18.3134 18.3136 23.45 12.0004 23.45Z" fill="black"/>
</svg>
